<?xml version="1.0" encoding="UTF-8"?>
<svg width="33px" height="25px" viewBox="0 0 33 25" version="1.1" xmlns="http://www.w3.org/2000/svg" xmlns:xlink="http://www.w3.org/1999/xlink">
    <title>Free</title>
    <g id="Page-1" stroke="none" stroke-width="1" fill="none" fill-rule="evenodd">
        <g id="Footer-Copy-5" transform="translate(-628.000000, -43.000000)">
            <g id="Free" transform="translate(628.822448, 44.000766)">
                <g id="Group" stroke="#B2B2B2" stroke-width="0.972">
                    <path d="M29.322,17.9982 L16.3458,17.9982 C15.5034,17.9982 14.8068,17.3016 14.8068,16.4592 L14.8068,1.539 C14.8068,0.6966 15.5034,0 16.3458,0 L29.322,0 C30.1644,0 30.861,0.6966 30.861,1.539 L30.861,16.4592 C30.861,17.3178 30.1644,17.9982 29.322,17.9982 Z" id="Path"></path>
                    <path d="M14.8068,4.293 L14.8068,19.3104 L1.8468,19.3104 C1.134,19.3104 0.567,18.7272 0.567,18.0144 L0.567,14.0616 C0.567,12.8466 0.6804,11.9232 1.0206,11.0322 C1.5066,9.7686 2.4462,8.6022 4.1472,6.8364 C6.723,4.1634 8.3106,3.3696 11.2428,3.3696 L13.8834,3.3696 C14.3856,3.3534 14.8068,3.7746 14.8068,4.293 Z" id="Path" fill="#FFFFFF" fill-rule="nonzero"></path>
                    <path d="M6.6258,17.7714 C6.6258,18.1926 6.4476,18.5814 6.1722,18.8568 C5.8968,19.1322 5.508,19.3104 5.0868,19.3104 L1.5228,19.3104 C1.377,19.3104 1.2312,19.2942 1.0854,19.2456 C0.4698,19.0512 0,18.468 0,17.7714 C0,17.3502 0.1782,16.9614 0.4536,16.686 C0.729,16.4106 1.1178,16.2324 1.539,16.2324 L5.103,16.2324 C5.9292,16.2324 6.6258,16.929 6.6258,17.7714 Z" id="Path" fill="#FFFFFF" fill-rule="nonzero"></path>
                    <path d="M4.3092,11.745 L11.8422,11.745 C12.15,11.745 12.393,11.502 12.393,11.1942 L12.393,5.994 C12.393,5.6862 12.15,5.4432 11.8422,5.4432 L9.477,5.4432 C7.9704,5.4432 7.1766,6.318 5.913,7.5816 C4.3578,9.1206 3.7584,9.7524 3.7584,11.178 L3.7584,11.178 C3.7584,11.4858 4.0176,11.745 4.3092,11.745 Z" id="Path" fill="#FFFFFF" fill-rule="nonzero"></path>
                    <ellipse id="Oval" fill="#FFFFFF" fill-rule="nonzero" cx="6.6258" cy="19.3266" rx="3.969" ry="4.0014"></ellipse>
                    <circle id="Oval" fill="#FFFFFF" fill-rule="nonzero" cx="6.6258" cy="19.3266" r="1.8144"></circle>
                    <path d="M31.3794,17.2368 L31.3794,18.3222 C31.3794,18.873 30.9258,19.3104 30.3912,19.3104 L14.4666,19.3104 C14.0778,19.3104 13.7538,18.9864 13.7538,18.5976 L13.7538,16.9452 C13.7538,16.5564 14.0778,16.2324 14.4666,16.2324 L30.375,16.2324 C30.9258,16.2324 31.3794,16.686 31.3794,17.2368 Z" id="Path" fill="#FFFFFF" fill-rule="nonzero"></path>
                    <ellipse id="Oval" fill="#FFFFFF" fill-rule="nonzero" cx="24.6564" cy="19.3266" rx="3.969" ry="4.0014"></ellipse>
                    <circle id="Oval" fill="#FFFFFF" fill-rule="nonzero" cx="24.6564" cy="19.3266" r="1.8144"></circle>
                </g>
                <g id="Group" transform="translate(16.167600, 6.058800)" fill="#B2B2B2" fill-rule="nonzero">
                    <path d="M2.268,0.5832 L0.7776,0.5832 L0.7776,1.5552 L2.025,1.5552 C2.1384,1.5552 2.2194,1.5876 2.2842,1.6362 C2.349,1.6848 2.3652,1.7658 2.3652,1.8468 C2.3652,1.9278 2.3328,2.0088 2.2842,2.0574 C2.2356,2.106 2.1384,2.1384 2.025,2.1384 L0.7776,2.1384 L0.7776,3.3696 C0.7776,3.5316 0.7452,3.645 0.6642,3.726 C0.5994,3.807 0.5022,3.8394 0.3888,3.8394 C0.2754,3.8394 0.1782,3.807 0.1134,3.726 C0.0486,3.645 0,3.5316 0,3.3696 L0,0.4698 C0,0.3564 0.0162,0.2754 0.0486,0.1944 C0.081,0.1134 0.1296,0.081 0.1944,0.0486 C0.2592,0.0162 0.3564,0 0.4536,0 L2.2356,0 C2.349,0 2.4462,0.0324 2.511,0.081 C2.5758,0.1296 2.592,0.2106 2.592,0.2916 C2.592,0.3726 2.5596,0.4536 2.511,0.5022 C2.4786,0.567 2.3976,0.5832 2.268,0.5832 Z" id="Path"></path>
                    <path d="M4.212,2.1546 L3.9528,2.1546 L3.9528,3.3534 C3.9528,3.5154 3.9204,3.6288 3.8556,3.7098 C3.7908,3.7908 3.6936,3.8232 3.5802,3.8232 C3.4668,3.8232 3.3696,3.7908 3.3048,3.7098 C3.24,3.6288 3.2076,3.5154 3.2076,3.3696 L3.2076,0.4698 C3.2076,0.3078 3.24,0.1944 3.321,0.1134 C3.402,0.0324 3.5154,0 3.6774,0 L4.9086,0 C5.0706,0 5.2164,0 5.346,0.0162 C5.4756,0.0324 5.5728,0.0648 5.67,0.0972 C5.7834,0.1458 5.8968,0.2106 5.9778,0.3078 C6.075,0.405 6.1398,0.5022 6.1884,0.6318 C6.237,0.7614 6.2532,0.891 6.2532,1.0206 C6.2532,1.296 6.1722,1.5228 6.0102,1.6848 C5.8482,1.8468 5.6214,1.9764 5.2974,2.0412 C5.427,2.106 5.5566,2.2194 5.6862,2.3652 C5.8158,2.511 5.913,2.6568 6.0102,2.8188 C6.1074,2.9808 6.1884,3.1266 6.237,3.24 C6.2856,3.3534 6.318,3.4506 6.318,3.4992 C6.318,3.5478 6.3018,3.5964 6.2694,3.645 C6.237,3.6936 6.1884,3.726 6.1398,3.7584 C6.0912,3.7908 6.0264,3.807 5.9454,3.807 C5.8644,3.807 5.7834,3.7908 5.7348,3.7422 C5.67,3.7098 5.6214,3.645 5.589,3.5964 C5.5566,3.5478 5.4918,3.4506 5.427,3.321 L5.1192,2.8188 C5.0058,2.6406 4.9086,2.4948 4.8276,2.3976 C4.7466,2.3004 4.6494,2.2356 4.5684,2.2032 C4.455,2.1708 4.3416,2.1546 4.212,2.1546 Z M4.6494,0.567 L3.9528,0.567 L3.9528,1.6038 L4.6332,1.6038 C4.8114,1.6038 4.9734,1.5876 5.0868,1.5552 C5.2164,1.5228 5.3136,1.4742 5.3784,1.3932 C5.4432,1.3122 5.4756,1.215 5.4756,1.0854 C5.4756,0.9882 5.4432,0.891 5.3946,0.81 C5.346,0.729 5.265,0.6642 5.1678,0.6318 C5.0868,0.5994 4.9086,0.567 4.6494,0.567 Z" id="Shape"></path>
                    <path d="M9.4122,0.5832 L7.7112,0.5832 L7.7112,1.5066 L9.2826,1.5066 C9.396,1.5066 9.477,1.539 9.5418,1.5876 C9.6066,1.6362 9.6228,1.701 9.6228,1.7982 C9.6228,1.8792 9.5904,1.9602 9.5418,2.0088 C9.4932,2.0574 9.396,2.0898 9.2826,2.0898 L7.7112,2.0898 L7.7112,3.159 L9.477,3.159 C9.5904,3.159 9.6876,3.1914 9.7524,3.24 C9.8172,3.2886 9.8496,3.3696 9.8496,3.4668 C9.8496,3.5478 9.8172,3.6288 9.7524,3.6774 C9.6876,3.726 9.6066,3.7584 9.477,3.7584 L7.4196,3.7584 C7.2576,3.7584 7.1442,3.726 7.0632,3.645 C6.9822,3.564 6.9498,3.4506 6.9498,3.2886 L6.9498,0.4698 C6.9498,0.3564 6.966,0.2754 6.9984,0.1944 C7.0308,0.1134 7.0794,0.081 7.1442,0.0486 C7.209,0.0162 7.3062,0 7.4034,0 L9.396,0 C9.5094,0 9.6066,0.0324 9.6714,0.081 C9.7362,0.1296 9.7524,0.2106 9.7524,0.2916 C9.7524,0.3726 9.72,0.4536 9.6714,0.5022 C9.6228,0.5508 9.5256,0.5832 9.4122,0.5832 Z" id="Path"></path>
                    <path d="M10.5462,3.645 C10.4814,3.564 10.4328,3.4506 10.4328,3.2886 L10.4328,0.4698 C10.4328,0.3564 10.449,0.2754 10.4814,0.1944 C10.5138,0.1296 10.5624,0.081 10.6272,0.0486 C10.692,0.0162 10.7892,0 10.8864,0 L12.879,0 C12.9924,0 13.0896,0.0324 13.1544,0.081 C13.2192,0.1296 13.2354,0.2106 13.2354,0.2916 C13.2354,0.3726 13.203,0.4536 13.1544,0.5022 C13.0896,0.5508 13.0086,0.5832 12.879,0.5832 L11.178,0.5832 L11.178,1.5066 L12.7494,1.5066 C12.8628,1.5066 12.9438,1.539 13.0086,1.5876 C13.0734,1.6362 13.0896,1.701 13.0896,1.7982 C13.0896,1.8792 13.0572,1.9602 13.0086,2.0088 C12.96,2.0574 12.8628,2.0898 12.7494,2.0898 L11.178,2.0898 L11.178,3.159 L12.9438,3.159 C13.0572,3.159 13.1544,3.1914 13.2192,3.24 C13.284,3.2886 13.3164,3.3696 13.3164,3.4668 C13.3164,3.5478 13.284,3.6288 13.2192,3.6774 C13.1544,3.726 13.0734,3.7584 12.9438,3.7584" id="Path"></path>
                </g>
            </g>
        </g>
    </g>
</svg>