<?xml version="1.0" encoding="UTF-8"?>
<svg width="27px" height="27px" viewBox="0 0 27 27" version="1.1" xmlns="http://www.w3.org/2000/svg" xmlns:xlink="http://www.w3.org/1999/xlink">
    <title>express</title>
    <g id="Page-1" stroke="none" stroke-width="1" fill="none" fill-rule="evenodd">
        <g id="Footer-Copy-5" transform="translate(-1225.000000, -42.000000)" fill="#B5B5B5" fill-rule="nonzero">
            <g id="express" transform="translate(1225.558080, 42.614766)">
                <path d="M1.42109518,0.00146658997 C3.54177492,0.1592031 5.50471815,1.08809588 6.94187302,2.66546098 L6.94187302,2.66546098 L9.46565718,5.3820342 L13.8121743,3.71703771 L13.7245429,3.62940632 C13.286386,3.15619679 13.286386,2.42009307 13.7420692,1.96440982 L13.7420692,1.96440982 L14.3730153,1.33346378 C14.6008569,1.10562216 14.8988036,0.982938206 15.2142766,0.982938206 C15.5297497,0.982938206 15.8276964,1.10562216 16.055538,1.33346378 L16.055538,1.33346378 L17.1596936,2.43761935 L20.3494764,1.21077983 C21.1732115,0.895306812 22.1196305,1.08809588 22.7505766,1.71904192 C22.9258393,1.89430471 23.030997,2.15719889 23.0134707,2.42009307 C22.9959445,2.68298726 22.8732605,2.92835516 22.6629452,3.08609167 L22.6629452,3.08609167 L16.8266943,7.52024022 C16.809168,7.52024022 16.7916417,7.5377665 16.7565892,7.55529278 L16.7565892,7.55529278 L13.6369115,9.93886671 L19.5958464,16.4235899 L23.8547321,15.109119 C24.4856782,14.9163299 25.169203,15.0740664 25.6424126,15.5472759 L25.6424126,15.5472759 L25.8527279,15.7575913 C26.0104644,15.9153278 26.1156221,16.1431694 26.1331484,16.3359585 C26.1331484,16.6339052 25.9929381,16.9143257 25.7475702,17.0720622 L25.7475702,17.0720622 L21.7515787,19.701004 L21.7515787,19.701004 L21.6814735,19.7535829 L20.5422654,20.5072129 L17.1071148,25.7125177 C17.0720622,25.7650965 17.0370096,25.8176754 17.0019571,25.8527279 C16.8266943,26.0104644 16.5988527,26.1156221 16.3534848,26.0980958 C16.1256431,26.0980958 15.9153278,25.9929381 15.7575913,25.8352016 L15.7575913,25.8352016 L15.5472759,25.6248863 C15.0915927,25.169203 14.9163299,24.4856782 15.109119,23.8547321 L15.109119,23.8547321 L16.4235899,19.5783201 L9.93886671,13.6193853 L4.61087793,20.6298968 C4.61087793,20.6474231 4.59335165,20.6649494 4.57582537,20.6824757 L4.57582537,20.6824757 L3.08609167,22.6454189 C2.87577632,22.9258393 2.52525075,23.0660496 2.19225145,22.9959445 C1.99946238,22.9608919 1.80667331,22.8557342 1.66646308,22.6979977 C1.0705696,22.084578 0.877780533,21.1556852 1.19325355,20.3494764 L1.19325355,20.3494764 L2.42009307,17.1596936 L1.3159375,16.055538 C1.08809588,15.8276964 0.965411928,15.5297497 0.965411928,15.2142766 C0.965411928,14.8988036 1.08809588,14.6008569 1.3159375,14.3730153 L1.3159375,14.3730153 L1.96440982,13.7245429 C2.42009307,13.286386 3.15619679,13.2688597 3.62940632,13.7070167 L3.62940632,13.7070167 L3.71703771,13.7946481 L5.3820342,9.4481309 L2.6479347,6.94187302 C1.08809588,5.50471815 0.141676821,3.5593012 0.00146658997,1.43862146 C-0.0160596889,1.03551704 0.124150542,0.667465187 0.387044725,0.387044725 C0.667465187,0.124150542 1.03551704,-0.0160596889 1.42109518,0.00146658997 Z M1.35099006,1.03551704 C1.22830611,1.03551704 1.14067472,1.08809588 1.0705696,1.17572727 C1.03551704,1.22830611 1.01799076,1.29841123 1.01799076,1.36851634 C1.158201,3.20877562 1.9819361,4.92635095 3.34898585,6.18824303 L3.34898585,6.18824303 L17.3524827,19.070058 C17.4926929,19.1927419 17.5452717,19.4030573 17.4926929,19.5958464 L17.4926929,19.5958464 L16.0730643,24.1702051 C16.0029592,24.4330993 16.0730643,24.7310461 16.2658534,24.9238351 L16.2658534,24.9238351 L16.3359585,24.9939403 L19.7185303,19.8762668 C19.7360566,19.8412143 19.7535829,19.823688 19.7886354,19.7886354 C19.7886354,19.7711091 19.7886354,19.7711091 19.8061617,19.7535829 L19.8366704,19.7237233 C19.8548458,19.7068461 19.8704247,19.6951619 19.8937931,19.6834778 L19.8937931,19.6834778 L24.976414,16.3359585 L24.9063089,16.2658534 C24.7135198,16.0730643 24.415573,15.9854329 24.1526789,16.0730643 L24.1526789,16.0730643 L19.5783201,17.4926929 C19.385531,17.562798 19.1927419,17.4926929 19.0525317,17.3524827 L19.0525317,17.3524827 L6.18824303,3.36651213 C4.92635095,1.9819361 3.20877562,1.158201 1.35099006,1.03551704 Z M7.41508255,19.8587405 C7.60787162,19.6484252 7.94087092,19.6484252 8.15118626,19.8587405 L8.15118626,19.8587405 L10.8151806,22.5227349 C11.025496,22.715524 11.025496,23.0485233 10.8151806,23.2588386 C10.710023,23.3639963 10.5698127,23.4165752 10.4471288,23.4165752 C10.3244448,23.4165752 10.1842346,23.3639963 10.0790769,23.2588386 L10.0790769,23.2588386 L7.41508255,20.5948443 C7.2047672,20.4020552 7.2047672,20.0690559 7.41508255,19.8587405 Z M6.20576931,10.2017609 L2.15719889,20.7175282 C2.05204122,20.9979487 2.05204122,21.3134217 2.15719889,21.5938422 C2.19225145,21.6989998 2.26235656,21.7515787 2.33246168,21.7691049 L2.33246168,21.7691049 L2.34998796,21.7691049 C2.45514563,21.7691049 2.52525075,21.6814735 2.54277703,21.6639473 L2.54277703,21.6639473 L4.48819398,19.1051106 C4.48819398,19.0875843 4.50572026,19.070058 4.52324654,19.0525317 L4.52324654,19.0525317 L9.18523672,12.9358604 L6.20576931,10.2017609 Z M9.13265788,17.6679557 C9.32544695,17.4576403 9.65844624,17.4576403 9.86876159,17.6679557 L9.86876159,17.6679557 L11.4461267,19.2453208 C11.656442,19.4381099 11.656442,19.7711091 11.4461267,19.9814245 C11.340969,20.0865822 11.2182851,20.139161 11.0780748,20.139161 C10.9553909,20.139161 10.8151806,20.0865822 10.710023,19.9814245 L10.710023,19.9814245 L9.13265788,18.4040594 C8.92234253,18.2112703 8.92234253,17.878271 9.13265788,17.6679557 Z M2.91082888,14.4781729 C2.85825005,14.4080678 2.75309237,14.4080678 2.68298726,14.4781729 L2.68298726,14.4781729 L2.05204122,15.109119 C1.9819361,15.1616978 1.9819361,15.2668555 2.05204122,15.3369606 L2.05204122,15.3369606 L2.82319749,16.1081169 L3.29640702,14.8637511 Z M17.6679557,9.1151316 C17.8607448,8.92234253 18.1937441,8.92234253 18.4040594,9.1151316 L18.4040594,9.1151316 L19.9814245,10.6924967 C20.1917398,10.8852858 20.1917398,11.2182851 19.9814245,11.4286004 C19.8762668,11.5337581 19.7360566,11.5863369 19.6133726,11.5863369 C19.4906887,11.5863369 19.3504785,11.5337581 19.2453208,11.4286004 L19.2453208,11.4286004 L17.6679557,9.85123531 C17.4576403,9.65844624 17.4576403,9.32544695 17.6679557,9.1151316 Z M19.8587405,7.41508255 C20.0515296,7.2047672 20.3845289,7.2047672 20.5948443,7.41508255 L20.5948443,7.41508255 L23.2588386,10.0790769 C23.469154,10.271866 23.469154,10.6048653 23.2588386,10.8151806 C23.153681,10.9203383 23.0134707,10.9729172 22.8907868,10.9729172 C22.7681028,10.9729172 22.6278926,10.9203383 22.5227349,10.8151806 L22.5227349,10.8151806 L19.8587405,8.15118626 C19.6484252,7.95839719 19.6484252,7.6253979 19.8587405,7.41508255 Z M21.523737,2.13967261 C21.2257903,2.05204122 20.9453698,2.0695675 20.7175282,2.15719889 L20.7175282,2.15719889 L10.2017609,6.18824303 L12.9358604,9.16771044 L17.6679557,5.55729699 C17.7030082,5.53977071 17.7205345,5.52224443 17.7555871,5.50471815 L17.7555871,5.50471815 L21.6288947,2.5603033 C21.646421,2.54277703 21.7691049,2.43761935 21.7515787,2.3149354 C21.7340524,2.22730401 21.6639473,2.17472517 21.523737,2.13967261 Z M15.3194343,2.05204122 C15.2668555,1.9819361 15.1616978,1.9819361 15.0915927,2.05204122 L15.0915927,2.05204122 L14.4606467,2.68298726 C14.4080678,2.75309237 14.4080678,2.85825005 14.4606467,2.91082888 L14.4606467,2.91082888 L14.8462248,3.29640702 L16.0905906,2.82319749 Z" id="Combined-Shape"></path>
            </g>
        </g>
    </g>
</svg>