<?xml version="1.0" encoding="UTF-8"?>
<svg width="29px" height="27px" viewBox="0 0 29 27" version="1.1" xmlns="http://www.w3.org/2000/svg" xmlns:xlink="http://www.w3.org/1999/xlink">
    <title>shipping</title>
    <g id="Page-1" stroke="none" stroke-width="1" fill="none" fill-rule="evenodd">
        <g id="Footer-Copy-5" transform="translate(-1055.000000, -42.000000)">
            <g id="shipping" transform="translate(1055.856848, 43.402688)">
                <path d="M19.1694432,1.38638881 L15.372322,0.126956078 C14.578522,-0.116043922 13.703722,-0.0026439219 12.974722,0.402356078 L1.37552201,6.99575608 C0.0795220061,7.74095608 -0.390277994,9.39335608 0.354922006,10.6893561 L3.24074625,15.5554427 M18.920122,3.75575608 C18.174922,4.17695608 17.931922,5.08415608 18.336922,5.81315608 C18.758122,6.54215608 19.665322,6.80135608 20.394322,6.38015608 C21.139522,5.95895608 21.382522,5.05175608 20.977522,4.32275608 C20.556322,3.60995608 19.632922,3.35075608 18.920122,3.75575608 Z" id="Shape" stroke="#B2B2B2" stroke-width="0.972"></path>
                <path d="M12.845122,2.52455608 C12.035122,2.67035608 11.306122,3.15635608 10.820122,3.83675608 L3.41672201,14.9337561 C2.57432201,16.1811561 2.91452201,17.8821561 4.14572201,18.7083561 L11.840722,23.8761561 C13.071922,24.7023561 14.772922,24.3621561 15.615322,23.1147561 L23.034922,12.0501561 C23.504722,11.3373561 23.666722,10.4949561 23.488522,9.68495608 L22.273522,3.85295608 C21.949522,2.20055608 20.361922,1.13135608 18.709522,1.43915608 L12.845122,2.52455608 Z M17.640322,4.19315608 C17.170522,4.90595608 17.348722,5.82935608 18.045322,6.29915608 C18.741922,6.76895608 19.665322,6.59075608 20.135122,5.87795608 C20.604922,5.16515608 20.426722,4.24175608 19.730122,3.77195608 C19.049722,3.31835608 18.110122,3.51275608 17.640322,4.19315608 Z" id="Shape" stroke="#B2B2B2" stroke-width="0.972" fill-rule="nonzero"></path>
                <path d="M17.575522,2.08715608 L13.314922,6.25055608 C12.715522,6.81755608 12.391522,7.64375608 12.375322,8.46995608 L12.391522,21.8025561 C12.391522,23.3091561 13.606522,24.5241561 15.096922,24.5241561 L24.363322,24.5241561 C25.853722,24.5241561 27.068722,23.2929561 27.068722,21.8025561 L27.068722,8.48615608 C27.068722,7.64375608 26.728522,6.83375608 26.129122,6.26675608 L21.868522,2.10335608 C20.685922,0.904556078 18.774322,0.904556078 17.575522,2.08715608 L17.575522,2.08715608 Z M18.223522,4.95455608 C18.223522,5.79695608 18.887722,6.47735608 19.730122,6.47735608 C20.572522,6.47735608 21.236722,5.81315608 21.236722,4.95455608 C21.236722,4.11215608 20.572522,3.43175608 19.730122,3.43175608 C18.903922,3.46415608 18.223522,4.14455608 18.223522,4.95455608 Z" id="Shape" fill="#FFFFFF" fill-rule="nonzero"></path>
                <path d="M17.575522,2.08715608 L13.314922,6.25055608 C12.715522,6.81755608 12.391522,7.64375608 12.375322,8.46995608 L12.391522,21.8025561 C12.391522,23.3091561 13.606522,24.5241561 15.096922,24.5241561 L24.363322,24.5241561 C25.853722,24.5241561 27.068722,23.2929561 27.068722,21.8025561 L27.068722,8.48615608 C27.068722,7.64375608 26.728522,6.83375608 26.129122,6.26675608 L21.868522,2.10335608 C20.685922,0.904556078 18.774322,0.904556078 17.575522,2.08715608 L17.575522,2.08715608 Z M18.223522,4.95455608 C18.223522,5.79695608 18.887722,6.47735608 19.730122,6.47735608 C20.572522,6.47735608 21.236722,5.81315608 21.236722,4.95455608 C21.236722,4.11215608 20.572522,3.43175608 19.730122,3.43175608 C18.903922,3.46415608 18.223522,4.14455608 18.223522,4.95455608 Z" id="Shape" stroke="#B2B2B2" stroke-width="0.972"></path>
                <g id="Group" transform="translate(17.624122, 10.818956)" stroke="#B2B2B2" stroke-linecap="round" stroke-width="0.972">
                    <path d="M2.7864,4.131 L1.4094,4.131 C0.6318,4.131 0,3.4992 0,2.7216 L0,2.7216 C0,1.944 0.6318,1.3122 1.4094,1.3122 L2.7864,1.3122 C3.564,1.3122 4.1958,1.944 4.1958,2.7216 L4.1958,2.7216" id="Path"></path>
                    <path d="M1.4094,4.131 L2.7864,4.131 C3.564,4.131 4.1958,4.7628 4.1958,5.5404 L4.1958,5.5404 C4.1958,6.318 3.564,6.9498 2.7864,6.9498 L1.4094,6.9498 C0.6318,6.9498 0,6.318 0,5.5404 L0,5.5404" id="Path"></path>
                    <line x1="2.1708" y1="0" x2="2.1708" y2="8.4564" id="Path"></line>
                </g>
            </g>
        </g>
    </g>
</svg>