<?xml version="1.0" encoding="UTF-8"?>
<svg width="26px" height="25px" viewBox="0 0 26 25" version="1.1" xmlns="http://www.w3.org/2000/svg" xmlns:xlink="http://www.w3.org/1999/xlink">
    <title>SLA</title>
    <g id="Page-1" stroke="none" stroke-width="1" fill="none" fill-rule="evenodd">
        <g id="Footer-Copy-5" transform="translate(-837.000000, -43.000000)" fill="#B2B2B2" fill-rule="nonzero">
            <g id="SLA" transform="translate(837.265848, 43.539066)">
                <path d="M23.0202,0 C24.4832114,0 25.677,1.11994602 25.677,2.5272 L25.677,2.5272 L25.677,21.7242 C25.677,23.131454 24.4832114,24.2514 23.0202,24.2514 L23.0202,24.2514 L2.6568,24.2514 C1.19378861,24.2514 0,23.131454 0,21.7242 L0,21.7242 L0,2.5272 C0,1.11994602 1.19378861,0 2.6568,0 L2.6568,0 Z M9.622,0.971 L2.6568,0.972 C1.71722677,0.972 0.972,1.67113027 0.972,2.5272 L0.972,2.5272 L0.972,21.7242 C0.972,22.5802697 1.71722677,23.2794 2.6568,23.2794 L2.6568,23.2794 L23.0202,23.2794 C23.9597732,23.2794 24.705,22.5802697 24.705,21.7242 L24.705,21.7242 L24.705,2.5272 C24.705,1.67113027 23.9597732,0.972 23.0202,0.972 L23.0202,0.972 L16.054,0.971 L16.0542,6.3828 C16.0542,7.39109799 14.896176,7.91486309 14.1460972,7.29266111 L14.0581461,7.2124539 L12.9727461,6.1270539 C12.9033409,6.0576487 12.7736591,6.0576487 12.7042539,6.1270539 L12.7042539,6.1270539 L11.6123099,7.21887562 C10.8662551,7.93729874 9.6228,7.42716333 9.6228,6.3828 L9.6228,6.3828 L9.622,0.971 Z M17.3178,11.2914 C20.2255792,11.2914 22.5828,13.6486208 22.5828,16.5564 C22.5828,19.4641792 20.2255792,21.8214 17.3178,21.8214 C14.4100208,21.8214 12.0528,19.4641792 12.0528,16.5564 C12.0528,13.6486208 14.4100208,11.2914 17.3178,11.2914 Z M17.3178,12.2634 C14.9468416,12.2634 13.0248,14.1854416 13.0248,16.5564 C13.0248,18.9273584 14.9468416,20.8494 17.3178,20.8494 C19.6887584,20.8494 21.6108,18.9273584 21.6108,16.5564 C21.6108,14.1854416 19.6887584,12.2634 17.3178,12.2634 Z M20.0266539,14.5117461 C20.1927244,14.6778166 20.2134832,14.9341721 20.0889303,15.1228138 L20.0266539,15.1990539 L17.6452539,17.5804539 C17.4791834,17.7465244 17.2228279,17.7672832 17.0341862,17.6427303 L16.9579461,17.5804539 L15.5809461,16.2034539 C15.3911513,16.0136591 15.3911513,15.7059409 15.5809461,15.5161461 C15.7470166,15.3500756 16.0033721,15.3293168 16.1920138,15.4538697 L16.2682539,15.5161461 L17.301,16.549 L19.3393461,14.5117461 C19.5291409,14.3219513 19.8368591,14.3219513 20.0266539,14.5117461 Z M15.082,0.972 L10.594,0.972 L10.5948,6.3828 C10.5948,6.54223089 10.7600149,6.6277259 10.8863792,6.55851134 L10.8863792,6.55851134 L10.9315461,6.5251461 L12.0169461,5.4397461 C12.4659409,4.9907513 13.2110591,4.9907513 13.6600539,5.4397461 L13.6600539,5.4397461 L14.7454539,6.5251461 C14.8749621,6.65465433 15.0822,6.5678624 15.0822,6.3828 L15.0822,6.3828 L15.082,0.972 Z" id="Combined-Shape"></path>
            </g>
        </g>
    </g>
</svg>