<?xml version="1.0" encoding="UTF-8"?> <svg xmlns="http://www.w3.org/2000/svg" width="210" height="88" viewBox="0 0 210 88" fill="none"><path d="M0.576 47.372H6.3V50H8.01V47.372H10.008V45.734H8.01V38.336H5.58L0.576 45.338V47.372ZM6.3 45.734H2.196L6.3 40.028V45.734ZM11.59 48.848C11.59 49.55 12.13 50.09 12.832 50.09C13.534 50.09 14.092 49.55 14.092 48.848C14.092 48.146 13.534 47.588 12.832 47.588C12.13 47.588 11.59 48.146 11.59 48.848ZM24.5496 38.714C24.0096 38.336 23.0916 38.066 22.0296 38.066C18.6276 38.066 16.0176 40.532 16.0176 44.87C16.0176 48.722 18.3396 50.27 20.5716 50.27C22.8576 50.27 24.8916 48.794 24.8916 46.292C24.8916 43.754 23.1996 42.314 20.8956 42.314C19.3476 42.314 18.2856 43.052 17.8176 43.826C17.9616 41.432 19.4916 39.65 21.9216 39.65C22.8036 39.65 23.5776 39.902 24.0096 40.154L24.5496 38.714ZM18.0696 46.292C18.0696 44.726 19.2396 43.826 20.5896 43.826C21.9396 43.826 23.1096 44.726 23.1096 46.292C23.1096 47.84 21.9576 48.74 20.5896 48.74C19.3116 48.74 18.0696 47.822 18.0696 46.292ZM34.0328 37.238H32.3948L26.2208 50H27.8588L34.0328 37.238ZM34.8015 46.832C34.9635 48.668 36.6375 50.288 39.1215 50.288C41.7135 50.288 43.4055 48.506 43.4055 46.31C43.4055 43.898 41.7315 42.44 39.4455 42.44C38.5275 42.44 37.5915 42.728 37.0695 43.304L37.9335 39.956H42.9195V38.336H36.7635L35.2515 44.132C35.8455 44.348 36.3675 44.582 36.9795 44.816C37.4835 44.294 38.2755 43.97 39.1035 43.97C40.4535 43.97 41.6235 44.78 41.6235 46.382C41.6235 47.822 40.5075 48.74 39.1215 48.74C37.6635 48.74 36.6015 47.768 36.4935 46.328L34.8015 46.832Z" fill="#110F14"></path><path d="M67.1393 45.572V44.096H49.9853V45.572H67.1393ZM78.5891 42.872V41.342H76.5011V39.974C76.5011 38.786 77.2751 38.498 77.8691 38.498C78.3011 38.498 78.5171 38.57 78.6071 38.606V37.094C78.5351 37.04 78.1751 36.914 77.5991 36.914C76.0331 36.914 74.7551 37.958 74.7551 39.884V41.342H73.1531V42.872H74.7551V50H76.5011V42.872H78.5891ZM85.1525 41.252C85.0625 41.234 84.8285 41.198 84.5945 41.198C83.7125 41.198 82.6325 41.522 82.0025 42.854V41.342H80.3465V50H82.0385V45.662C82.0385 43.754 82.9925 42.998 84.4145 42.998C84.6485 42.998 84.9005 43.016 85.1525 43.052V41.252ZM90.5794 48.758C89.1394 48.758 87.8794 47.678 87.8794 45.662C87.8794 43.664 89.1394 42.584 90.5794 42.584C92.0194 42.584 93.2794 43.664 93.2794 45.662C93.2794 47.678 92.0194 48.758 90.5794 48.758ZM90.5794 41.072C87.9874 41.072 86.1514 43.034 86.1514 45.662C86.1514 48.308 87.9874 50.27 90.5794 50.27C93.1714 50.27 95.0074 48.308 95.0074 45.662C95.0074 43.034 93.1714 41.072 90.5794 41.072ZM98.8428 50V44.78C98.8428 43.484 99.6528 42.584 100.859 42.584C102.155 42.584 102.695 43.448 102.695 44.564V50H104.387V44.762C104.387 43.52 105.197 42.584 106.385 42.584C107.663 42.584 108.221 43.43 108.221 44.564V50H109.895V44.384C109.895 42.116 108.419 41.09 106.907 41.09C105.809 41.09 104.693 41.486 104.009 42.728C103.541 41.612 102.497 41.09 101.417 41.09C100.409 41.09 99.3288 41.54 98.7888 42.494V41.342H97.1688V50H98.8428ZM118.453 42.53C118.435 42.35 118.417 42.17 118.417 42.008C118.417 40.676 119.137 39.614 120.667 39.614C122.143 39.614 122.863 40.604 122.863 41.666C122.863 42.566 122.359 43.394 121.261 44.096L119.317 45.356C117.337 46.634 116.581 48.092 116.545 50H124.717V48.362H118.723C118.885 47.642 119.479 47.156 120.145 46.724L122.449 45.248C123.781 44.402 124.645 43.178 124.645 41.648C124.645 39.704 123.205 38.066 120.703 38.066C118.147 38.066 116.671 39.848 116.671 41.846C116.671 41.99 116.671 42.152 116.689 42.314L118.453 42.53ZM130.706 50V38.336H129.158C128.888 39.596 127.772 40.496 126.152 40.532V41.774H128.978V50H130.706ZM133.128 49.586C133.704 49.982 134.928 50.27 135.828 50.27C139.752 50.27 141.66 47.714 141.66 43.43C141.66 39.704 139.41 38.066 137.124 38.066C134.838 38.066 132.822 39.686 132.822 42.098C132.822 44.672 134.838 46.04 136.854 46.04C138.438 46.04 139.464 45.32 139.878 44.546C139.806 46.832 138.654 48.686 135.828 48.686C135.072 48.686 134.208 48.434 133.704 48.128L133.128 49.586ZM139.644 42.062C139.644 43.61 138.42 44.528 137.124 44.528C135.792 44.528 134.604 43.646 134.604 42.062C134.604 40.532 135.828 39.614 137.124 39.614C138.402 39.614 139.644 40.55 139.644 42.062ZM153.303 41.252C153.213 41.234 152.979 41.198 152.745 41.198C151.863 41.198 150.783 41.522 150.153 42.854V41.342H148.497V50H150.189V45.662C150.189 43.754 151.143 42.998 152.565 42.998C152.799 42.998 153.051 43.016 153.303 43.052V41.252ZM156.102 44.78C156.174 43.664 157.038 42.566 158.46 42.566C159.99 42.566 160.8 43.538 160.836 44.78H156.102ZM161.088 47.03C160.764 48.002 160.062 48.776 158.658 48.776C157.2 48.776 156.084 47.696 156.048 46.148H162.564C162.582 46.04 162.6 45.824 162.6 45.608C162.6 42.908 161.106 41.072 158.442 41.072C156.264 41.072 154.302 42.926 154.302 45.644C154.302 48.578 156.336 50.27 158.658 50.27C160.674 50.27 162.06 49.064 162.546 47.534L161.088 47.03ZM172.127 41.342H170.309L167.825 48.02L165.359 41.342H163.451L166.961 50H168.671L172.127 41.342ZM175.606 50V41.342H173.932V50H175.606ZM173.554 38.066C173.554 38.732 174.094 39.272 174.76 39.272C175.444 39.272 175.984 38.732 175.984 38.066C175.984 37.382 175.444 36.842 174.76 36.842C174.094 36.842 173.554 37.382 173.554 38.066ZM179.569 44.78C179.641 43.664 180.505 42.566 181.927 42.566C183.457 42.566 184.267 43.538 184.303 44.78H179.569ZM184.555 47.03C184.231 48.002 183.529 48.776 182.125 48.776C180.667 48.776 179.551 47.696 179.515 46.148H186.031C186.049 46.04 186.067 45.824 186.067 45.608C186.067 42.908 184.573 41.072 181.909 41.072C179.731 41.072 177.769 42.926 177.769 45.644C177.769 48.578 179.803 50.27 182.125 50.27C184.141 50.27 185.527 49.064 186.013 47.534L184.555 47.03ZM193.143 41.342L190.893 47.858L188.949 41.342H187.095L189.939 50H191.721L193.971 43.412L196.275 50H198.021L200.829 41.342H199.047L197.139 47.858L194.889 41.342H193.143ZM201.83 47.75C201.974 48.74 202.982 50.27 205.358 50.27C207.5 50.27 208.526 48.812 208.526 47.588C208.526 46.31 207.698 45.356 206.132 45.014L204.728 44.708C204.062 44.564 203.738 44.186 203.738 43.664C203.738 43.07 204.314 42.512 205.178 42.512C206.546 42.512 206.906 43.502 206.978 43.952L208.472 43.394C208.292 42.62 207.554 41.072 205.178 41.072C203.486 41.072 202.1 42.332 202.1 43.808C202.1 45.032 202.91 45.95 204.26 46.238L205.736 46.562C206.456 46.724 206.852 47.138 206.852 47.678C206.852 48.29 206.33 48.83 205.376 48.83C204.152 48.83 203.468 48.11 203.36 47.21L201.83 47.75Z" fill="#7C7884"></path><path d="M0.0517578 74.9297L7.80438 74.9313L12.5185 74.9321V70.2444L0.0517578 74.9297Z" fill="#110F14"></path><path d="M12.5186 70.2443V86.7942L18.4064 68.0308L12.5186 70.2443Z" fill="#110F14"></path><path d="M12.5183 74.932L7.8042 74.9312L12.5183 86.7942V74.932Z" fill="#110F14"></path><path d="M0.0517578 74.9297L9.01326 77.9751L7.80438 74.9312L0.0517578 74.9297Z" fill="#110F14"></path><path fill-rule="evenodd" clip-rule="evenodd" d="M28.2692 82.6948C28.4285 82.592 28.5424 82.5064 28.6107 82.4377C28.7358 82.3121 28.8268 82.1978 28.8839 82.0949C28.9408 81.9921 28.9693 81.8665 28.9693 81.7177C28.9693 81.615 28.9408 81.5009 28.8839 81.375C28.8269 81.2495 28.7586 81.1239 28.679 80.9981C28.6001 80.8736 28.5146 80.7534 28.4229 80.6381C28.3317 80.524 28.2522 80.4268 28.1839 80.3467C28.0814 80.4383 27.9533 80.5467 27.7996 80.6724C27.646 80.7982 27.4667 80.9182 27.2617 81.0321C27.0568 81.1466 26.8204 81.2438 26.5531 81.3237C26.2855 81.4037 25.9922 81.4436 25.6737 81.4436C25.0702 81.4436 24.5664 81.3295 24.1625 81.1007C23.7583 80.8723 23.4309 80.5694 23.1807 80.1924C22.93 79.8155 22.7537 79.3811 22.6513 78.8898C22.5488 78.3986 22.4976 77.8845 22.4976 77.3473C22.4976 76.8446 22.5488 76.3504 22.6513 75.8646C22.7537 75.3791 22.9245 74.9477 23.1636 74.5706C23.4026 74.1935 23.7185 73.8879 24.1113 73.6536C24.5041 73.4195 24.9907 73.3022 25.5713 73.3022C25.9013 73.3022 26.2001 73.3395 26.4677 73.4137C26.7351 73.4881 26.9742 73.5795 27.185 73.6879C27.3955 73.7966 27.5862 73.9222 27.757 74.065C27.9277 74.208 28.0814 74.3478 28.218 74.4849C28.423 74.2908 28.6108 74.0794 28.7816 73.8507C28.9523 73.6222 29.0377 73.3938 29.0377 73.1651C29.0377 73.0167 29.0006 72.8796 28.9267 72.7537C28.8526 72.6281 28.7645 72.5197 28.6621 72.4281C28.5708 72.3483 28.4371 72.2481 28.2607 72.1281C28.0841 72.0081 27.8621 71.8941 27.5948 71.7853C27.3271 71.6769 27.0142 71.5825 26.6556 71.5025C26.2969 71.4227 25.8957 71.3826 25.4517 71.3826C24.5522 71.3826 23.7697 71.5342 23.1038 71.8368C22.4378 72.1397 21.8828 72.5596 21.4388 73.0965C20.9948 73.6339 20.6619 74.2706 20.4399 75.0077C20.2179 75.7447 20.1069 76.5476 20.1069 77.4158C20.1069 78.2843 20.2094 79.0812 20.4143 79.8068C20.6192 80.5325 20.9407 81.1608 21.379 81.6922C21.8172 82.2234 22.3721 82.6379 23.0439 82.9349C23.7155 83.2318 24.5124 83.3804 25.4346 83.3804C25.9128 83.3804 26.3366 83.3432 26.7068 83.2691C27.0766 83.1945 27.3898 83.1061 27.6459 83.0034C27.9021 82.9005 28.1097 82.7977 28.2692 82.6948ZM37.8058 83.1062C37.5422 82.6924 37.4107 82.0314 37.4107 81.1232H37.4107V77.8816C37.4107 77.3531 37.3533 76.8902 37.2389 76.4936C37.1243 76.097 36.9324 75.7667 36.6635 75.5021C36.3943 75.2378 36.045 75.0425 35.6155 74.9159C35.1861 74.7895 34.6621 74.7262 34.0437 74.7262C33.597 74.7262 33.1732 74.7636 32.7725 74.8383C32.3715 74.9132 32.0166 75.0107 31.7073 75.1314C31.3981 75.2521 31.1547 75.3874 30.9772 75.5366C30.7995 75.6861 30.7109 75.8413 30.7109 76.0022C30.7109 76.1172 30.7596 76.2926 30.857 76.5281C30.954 76.7639 31.083 76.9793 31.2435 77.1747C31.6098 76.9677 31.9849 76.784 32.3687 76.6229C32.7523 76.462 33.1904 76.3815 33.6829 76.3815C34.2095 76.3815 34.5904 76.4747 34.8253 76.6606C35.0599 76.8465 35.1775 77.1604 35.1775 77.6023V77.9161H34.8081C34.6763 77.9161 34.5419 77.922 34.4044 77.9334C33.9922 77.9566 33.5396 78.008 33.0473 78.0883C32.5547 78.1687 32.0966 78.3145 31.673 78.5264C31.2491 78.7384 30.897 79.0277 30.6164 79.3945C30.3357 79.7611 30.1955 80.2368 30.1955 80.8212C30.1955 81.2909 30.2755 81.689 30.4361 82.0156C30.5964 82.3422 30.8024 82.6029 31.0545 82.7979C31.3063 82.9925 31.587 83.1326 31.8963 83.2189C32.2055 83.3046 32.5147 83.3477 32.8239 83.3477C33.4193 83.3477 33.9234 83.2554 34.3357 83.0719C34.7479 82.8879 35.08 82.6638 35.3321 82.3992C35.3892 82.6982 35.5237 82.9281 35.7358 83.0889C35.9475 83.2498 36.2597 83.3303 36.672 83.3303C36.8666 83.3303 37.0526 83.3131 37.2303 83.2786C37.4078 83.2441 37.5996 83.1865 37.8058 83.1062ZM35.2117 79.1231H34.9713C34.8909 79.1231 34.8107 79.1291 34.7308 79.1404C34.4443 79.1635 34.1608 79.198 33.8804 79.2437C33.5997 79.2898 33.3505 79.3703 33.1332 79.4852C32.9155 79.6002 32.738 79.7498 32.6006 79.9335C32.4632 80.1175 32.3944 80.3533 32.3944 80.6405C32.3944 80.9624 32.486 81.2353 32.6693 81.4595C32.8523 81.6837 33.1616 81.7958 33.597 81.7958C33.8144 81.7958 34.0206 81.7672 34.2154 81.7094C34.41 81.6522 34.5818 81.5774 34.7308 81.4854C34.8795 81.3935 34.997 81.293 35.083 81.1836C35.1688 81.0745 35.2118 80.974 35.2118 80.8819V79.1231H35.2117ZM42.5442 75.0623C42.1561 75.2865 41.8705 75.508 41.688 75.7262C41.6187 75.4274 41.4512 75.2149 41.1858 75.0882C40.9204 74.9619 40.5972 74.8985 40.2166 74.8985C40.0897 74.8985 39.9801 74.9015 39.8878 74.9071C39.7955 74.913 39.7147 74.9217 39.6454 74.933C39.5644 74.9446 39.4951 74.9562 39.4377 74.9674V86.7931H41.774V82.5544C41.7968 82.5889 41.854 82.6523 41.9453 82.7442C42.0365 82.8364 42.1677 82.9282 42.339 83.0201C42.5102 83.1122 42.7185 83.1952 42.9642 83.2701C43.2094 83.3448 43.4978 83.3822 43.8289 83.3822C44.2284 83.3822 44.6281 83.3131 45.0277 83.1752C45.4271 83.0373 45.7898 82.7988 46.1152 82.4597C46.4404 82.1207 46.7057 81.6608 46.9113 81.0801C47.1168 80.4998 47.2196 79.761 47.2196 78.8644C47.2196 78.0945 47.1311 77.4448 46.9542 76.9159C46.7771 76.3873 46.5402 75.9619 46.2433 75.64C45.9465 75.3183 45.6067 75.0855 45.2245 74.9416C44.8419 74.798 44.4395 74.7261 44.017 74.7261C43.4232 74.7261 42.9323 74.8382 42.5442 75.0623ZM44.7802 78.9161C44.7802 78.5713 44.7517 78.2496 44.6948 77.9505C44.6379 77.6518 44.544 77.3931 44.413 77.1746C44.282 76.9563 44.1053 76.7866 43.8834 76.6659C43.6611 76.5452 43.3908 76.485 43.0721 76.485C42.5939 76.485 42.2608 76.5771 42.0728 76.7607C41.885 76.9448 41.7911 77.1461 41.7911 77.3643V81.0199C41.882 81.112 42.0441 81.221 42.2776 81.3475C42.5112 81.4741 42.7814 81.537 43.0891 81.537C43.6699 81.537 44.0969 81.3073 44.3703 80.8474C44.6436 80.3877 44.7802 79.7438 44.7802 78.9161ZM48.8682 81.1577C48.891 81.4107 48.9425 81.6522 49.0228 81.882C49.183 82.3303 49.4608 82.6924 49.8559 82.9684C50.251 83.2442 50.8034 83.3823 51.5137 83.3823C51.8801 83.3823 52.2181 83.3445 52.5273 83.269C52.8366 83.1936 53.0998 83.0949 53.3174 82.9732C53.5349 82.8515 53.7039 82.7178 53.8243 82.5728C53.9447 82.4279 54.0047 82.2798 54.0047 82.1288C54.0047 81.9666 53.9588 81.7929 53.8672 81.6078C53.7754 81.423 53.6439 81.204 53.4721 80.9509C53.4378 80.9854 53.3777 81.037 53.2918 81.106C53.2059 81.1751 53.1056 81.2411 52.9912 81.3044C52.8765 81.3676 52.7477 81.425 52.6046 81.4767C52.4613 81.5286 52.3097 81.5543 52.1494 81.5543C51.4965 81.5543 51.1701 81.1535 51.1701 80.3516V76.6746H53.5753V74.9329H51.1701V73.7087C51.1701 73.4216 51.1243 73.1887 51.0327 73.0104C50.941 72.8323 50.8208 72.6914 50.6721 72.5879C50.5229 72.4845 50.3568 72.4156 50.1738 72.381C49.9905 72.3466 49.8071 72.3293 49.624 72.3293C49.5323 72.3293 49.4407 72.3323 49.3492 72.3379C49.2574 72.3439 49.1714 72.3525 49.0915 72.3638C48.9998 72.3754 48.9139 72.387 48.8339 72.3982V80.3989C48.8339 80.6521 48.8452 80.905 48.8682 81.1577ZM59.4924 81.6578C59.7796 81.6578 60.0325 81.6263 60.251 81.5629C60.4693 81.5 60.6646 81.4223 60.837 81.3303C61.0093 81.2384 61.1589 81.1378 61.2853 81.0286C61.4117 80.9194 61.5266 80.8189 61.6302 80.7267C61.7679 80.899 61.9116 81.1206 62.0611 81.3905C62.2104 81.6608 62.2852 81.882 62.2852 82.0544C62.2852 82.3074 62.1419 82.5373 61.8558 82.7442C61.6153 82.9282 61.2743 83.0863 60.8337 83.2183C60.3926 83.3504 59.8743 83.4166 59.279 83.4166C58.7404 83.4166 58.2108 83.3477 57.6899 83.2097C57.1687 83.0718 56.7048 82.8303 56.2984 82.4854C55.8917 82.1407 55.5624 81.6781 55.3105 81.0975C55.0586 80.517 54.9326 79.7843 54.9326 78.8989C54.9326 78.1746 55.0444 77.5513 55.2675 77.0281C55.4909 76.5051 55.7886 76.0711 56.1611 75.7263C56.533 75.3814 56.9539 75.1287 57.4236 74.9675C57.893 74.8067 58.3741 74.7261 58.8667 74.7261C59.508 74.7261 60.0519 74.8269 60.4986 75.0279C60.9453 75.2291 61.3087 75.4993 61.5895 75.8383C61.8699 76.1774 62.0732 76.5654 62.1993 77.0022C62.3251 77.4392 62.3882 77.8988 62.3882 78.3816V78.623C62.3882 78.7152 62.3853 78.8127 62.3796 78.9161L62.3626 79.2179C62.3566 79.3158 62.348 79.3933 62.3369 79.4507H57.269C57.3149 80.083 57.5102 80.6089 57.855 81.0286C58.1995 81.4483 58.7454 81.6578 59.4924 81.6578ZM59.9555 76.8125C60.1686 77.1574 60.2752 77.6056 60.2752 78.1574H57.2518C57.2518 77.5712 57.3925 77.1143 57.6749 76.7866C57.957 76.459 58.3342 76.2952 58.8067 76.2952C59.3592 76.2952 59.7424 76.4677 59.9555 76.8125ZM66.454 75.7698C66.5226 75.6672 66.6142 75.5532 66.7288 75.4276C66.8432 75.3021 66.9836 75.1881 67.1497 75.0855C67.3156 74.9829 67.4989 74.8972 67.6995 74.8288C67.8996 74.7603 68.1145 74.7261 68.3438 74.7261C68.4811 74.7261 68.6272 74.7377 68.7817 74.7603C68.9363 74.7832 69.0794 74.8261 69.2111 74.8886C69.3427 74.9514 69.4488 75.0368 69.529 75.1451C69.609 75.2534 69.6493 75.3873 69.6493 75.5468C69.6493 75.7976 69.5861 76.0857 69.4603 76.4109C69.3341 76.7363 69.2084 77.0139 69.0824 77.2437C68.8875 77.0828 68.6928 76.9592 68.4983 76.8729C68.3034 76.7868 68.0744 76.7436 67.8111 76.7436C67.456 76.7436 67.1583 76.8474 66.9179 77.0548C66.6772 77.2622 66.557 77.5101 66.557 77.7983V83.3803H64.2208V74.9674C64.2779 74.9562 64.3466 74.9446 64.4269 74.933C64.4956 74.9217 64.5757 74.913 64.6674 74.9071C64.759 74.9015 64.8677 74.8985 64.9938 74.8985C65.3602 74.8985 65.678 74.9699 65.9472 75.1122C66.2161 75.2544 66.3853 75.4737 66.454 75.7698ZM73.3713 75.4276C73.2567 75.5532 73.1652 75.6672 73.0965 75.7698C73.0276 75.4737 72.8586 75.2544 72.5896 75.1122C72.3205 74.9699 72.0027 74.8985 71.6362 74.8985C71.5101 74.8985 71.4014 74.9015 71.3099 74.9071C71.2182 74.913 71.1381 74.9217 71.0694 74.933C70.9891 74.9446 70.9204 74.9562 70.8633 74.9674V83.3803H73.1996V77.7983C73.1996 77.5101 73.3198 77.2622 73.5603 77.0548C73.8008 76.8474 74.0985 76.7436 74.4536 76.7436C74.7169 76.7436 74.9459 76.7868 75.1407 76.8729C75.3352 76.9592 75.53 77.0828 75.7248 77.2437C75.8507 77.0139 75.9765 76.7363 76.1028 76.4109C76.2286 76.0857 76.2918 75.7976 76.2918 75.5468C76.2918 75.3873 76.2515 75.2534 76.1716 75.1451C76.0911 75.0368 75.9852 74.9514 75.8536 74.8886C75.7218 74.8261 75.5787 74.7832 75.4241 74.7603C75.2695 74.7377 75.1235 74.7261 74.9861 74.7261C74.7569 74.7261 74.5422 74.7603 74.3419 74.8288C74.1414 74.8972 73.9581 74.9829 73.7922 75.0855C73.6261 75.1881 73.4857 75.3021 73.3713 75.4276ZM84.2456 81.1232C84.2456 82.0314 84.3773 82.6924 84.6408 83.1062C84.4346 83.1865 84.2427 83.2441 84.0653 83.2786C83.8877 83.3131 83.7016 83.3303 83.507 83.3303C83.0946 83.3303 82.7825 83.2498 82.5708 83.0889C82.3586 82.9281 82.2242 82.6982 82.167 82.3992C81.915 82.6638 81.5829 82.8879 81.1706 83.0719C80.7584 83.2554 80.2542 83.3477 79.659 83.3477C79.3497 83.3477 79.0406 83.3046 78.7312 83.2189C78.422 83.1326 78.1412 82.9925 77.8895 82.7979C77.6374 82.6029 77.4313 82.3422 77.271 82.0156C77.1105 81.689 77.0306 81.2909 77.0306 80.8212C77.0306 80.2368 77.1706 79.7611 77.4515 79.3945C77.7319 79.0277 78.0842 78.7384 78.508 78.5264C78.9315 78.3145 79.3896 78.1687 79.8823 78.0883C80.3745 78.008 80.8271 77.9566 81.2394 77.9334C81.3769 77.922 81.5113 77.9161 81.6432 77.9161H82.0125V77.6023C82.0125 77.1604 81.8949 76.8465 81.6602 76.6606C81.4253 76.4747 81.0445 76.3815 80.5178 76.3815C80.0254 76.3815 79.5873 76.462 79.2037 76.6229C78.8199 76.784 78.4449 76.9677 78.0784 77.1747C77.918 76.9793 77.789 76.7639 77.6919 76.5281C77.5946 76.2926 77.546 76.1172 77.546 76.0022C77.546 75.8413 77.6345 75.6861 77.8122 75.5366C77.9897 75.3874 78.2331 75.2521 78.5423 75.1314C78.8516 75.0107 79.2064 74.9132 79.6073 74.8383C80.0082 74.7636 80.432 74.7262 80.8786 74.7262C81.497 74.7262 82.021 74.7895 82.4505 74.9159C82.8799 75.0425 83.2292 75.2378 83.4984 75.5021C83.7673 75.7667 83.9592 76.097 84.0739 76.4936C84.1882 76.8902 84.2456 77.3531 84.2456 77.8816V81.1232ZM81.8063 79.1231H82.0467H82.0468V80.8819C82.0468 80.974 82.0038 81.0745 81.9179 81.1836C81.8321 81.293 81.7144 81.3935 81.5658 81.4854C81.4168 81.5774 81.2451 81.6522 81.0504 81.7094C80.8556 81.7672 80.6494 81.7958 80.432 81.7958C79.9967 81.7958 79.6873 81.6837 79.5043 81.4595C79.321 81.2353 79.2294 80.9624 79.2294 80.6405C79.2294 80.3533 79.2982 80.1175 79.4356 79.9335C79.573 79.7498 79.7505 79.6002 79.9681 79.4852C80.1856 79.3703 80.4346 79.2898 80.7154 79.2437C80.9958 79.198 81.2794 79.1635 81.5658 79.1404C81.6457 79.1291 81.726 79.1231 81.8063 79.1231Z" fill="#110F14"></path><path d="M10.9858 16.3819C11.3024 16.192 11.6979 16.192 12.0146 16.3819L16.0179 18.7832C16.776 19.2379 17.7079 18.5576 17.5058 17.697L16.4478 13.1906C16.3625 12.8277 16.4863 12.4474 16.7689 12.2042L20.2873 9.17519C20.959 8.59691 20.602 7.49532 19.7188 7.42088L15.0765 7.0296C14.7075 6.9985 14.3859 6.76605 14.2406 6.42544L12.42 2.15669C12.0744 1.34644 10.9259 1.34643 10.5803 2.15669L8.75971 6.42544C8.61444 6.76605 8.29284 6.9985 7.92386 7.0296L3.28152 7.42088C2.39831 7.49532 2.04137 8.59691 2.71308 9.17519L6.23149 12.2042C6.51404 12.4474 6.6378 12.8277 6.55259 13.1906L5.49451 17.697C5.29247 18.5576 6.2244 19.2379 6.98242 18.7832L10.9858 16.3819Z" fill="#F05A3C"></path><path d="M37.9858 16.3819C38.3024 16.192 38.6979 16.192 39.0146 16.3819L43.0179 18.7832C43.776 19.2379 44.7079 18.5576 44.5058 17.697L43.4478 13.1906C43.3625 12.8277 43.4863 12.4474 43.7689 12.2042L47.2873 9.17519C47.959 8.59691 47.602 7.49532 46.7188 7.42088L42.0765 7.0296C41.7075 6.9985 41.3859 6.76605 41.2406 6.42544L39.42 2.15669C39.0744 1.34644 37.9259 1.34643 37.5803 2.15669L35.7597 6.42544C35.6144 6.76605 35.2928 6.9985 34.9239 7.0296L30.2815 7.42088C29.3983 7.49532 29.0414 8.59691 29.7131 9.17519L33.2315 12.2042C33.514 12.4474 33.6378 12.8277 33.5526 13.1906L32.4945 17.697C32.2925 18.5576 33.2244 19.2379 33.9824 18.7832L37.9858 16.3819Z" fill="#F05A3C"></path><path d="M64.9858 16.3819C65.3024 16.192 65.6979 16.192 66.0146 16.3819L70.0179 18.7832C70.776 19.2379 71.7079 18.5576 71.5058 17.697L70.4478 13.1906C70.3625 12.8277 70.4863 12.4474 70.7689 12.2042L74.2873 9.17519C74.959 8.59691 74.602 7.49532 73.7188 7.42088L69.0765 7.0296C68.7075 6.9985 68.3859 6.76605 68.2406 6.42544L66.42 2.15669C66.0744 1.34644 64.9259 1.34643 64.5803 2.15669L62.7597 6.42544C62.6144 6.76605 62.2928 6.9985 61.9239 7.0296L57.2815 7.42088C56.3983 7.49532 56.0414 8.59691 56.7131 9.17519L60.2315 12.2042C60.514 12.4474 60.6378 12.8277 60.5526 13.1906L59.4945 17.697C59.2925 18.5576 60.2244 19.2379 60.9824 18.7832L64.9858 16.3819Z" fill="#F05A3C"></path><path d="M90.9858 16.3819C91.3024 16.192 91.6979 16.192 92.0146 16.3819L96.0179 18.7832C96.776 19.2379 97.7079 18.5576 97.5058 17.697L96.4478 13.1906C96.3625 12.8277 96.4863 12.4474 96.7689 12.2042L100.287 9.17519C100.959 8.59691 100.602 7.49532 99.7188 7.42088L95.0765 7.0296C94.7075 6.9985 94.3859 6.76605 94.2406 6.42544L92.42 2.15669C92.0744 1.34644 90.9259 1.34643 90.5803 2.15669L88.7597 6.42544C88.6144 6.76605 88.2928 6.9985 87.9239 7.0296L83.2815 7.42088C82.3983 7.49532 82.0414 8.59691 82.7131 9.17519L86.2315 12.2042C86.514 12.4474 86.6378 12.8277 86.5526 13.1906L85.4945 17.697C85.2925 18.5576 86.2244 19.2379 86.9824 18.7832L90.9858 16.3819Z" fill="#F05A3C"></path><path d="M117.986 16.3819C118.302 16.192 118.698 16.192 119.015 16.3819L123.018 18.7832C123.776 19.2379 124.708 18.5576 124.506 17.697L123.448 13.1906C123.363 12.8277 123.486 12.4474 123.769 12.2042L127.287 9.17519C127.959 8.59691 127.602 7.49532 126.719 7.42088L122.076 7.0296C121.708 6.9985 121.386 6.76605 121.241 6.42544L119.42 2.15669C119.074 1.34644 117.926 1.34643 117.58 2.15669L115.76 6.42544C115.614 6.76605 115.293 6.9985 114.924 7.0296L110.282 7.42088C109.398 7.49532 109.041 8.59691 109.713 9.17519L113.231 12.2042C113.514 12.4474 113.638 12.8277 113.553 13.1906L112.495 17.697C112.292 18.5576 113.224 19.2379 113.982 18.7832L117.986 16.3819Z" fill="#D2D1D5"></path><mask id="mask0_822:526" style="mask-type:alpha" maskUnits="userSpaceOnUse" x="109" y="1" width="19" height="18"><path d="M117.986 16.3819C118.302 16.192 118.698 16.192 119.015 16.3819L123.018 18.7832C123.776 19.2379 124.708 18.5576 124.506 17.697L123.448 13.1906C123.363 12.8277 123.486 12.4474 123.769 12.2042L127.287 9.17519C127.959 8.59691 127.602 7.49532 126.719 7.42088L122.076 7.0296C121.708 6.9985 121.386 6.76605 121.241 6.42544L119.42 2.15669C119.074 1.34644 117.926 1.34643 117.58 2.15669L115.76 6.42544C115.614 6.76605 115.293 6.9985 114.924 7.0296L110.282 7.42088C109.398 7.49532 109.041 8.59691 109.713 9.17519L113.231 12.2042C113.514 12.4474 113.638 12.8277 113.553 13.1906L112.495 17.697C112.292 18.5576 113.224 19.2379 113.982 18.7832L117.986 16.3819Z" fill="white"></path></mask><g mask="url(#mask0_822:526)"><path d="M118.015 16.3646C118.316 16.1839 118.5 15.8584 118.5 15.5071V0L115.76 6.42544C115.614 6.76605 115.293 6.9985 114.924 7.0296L110.282 7.42088C109.398 7.49532 109.041 8.59691 109.713 9.17519L113.231 12.2042C113.514 12.4474 113.638 12.8277 113.553 13.1906L112.495 17.697C112.292 18.5576 113.224 19.2379 113.982 18.7832L118.015 16.3646Z" fill="#F05A3C"></path></g></svg> 