<?xml version="1.0" encoding="UTF-8"?> <svg xmlns="http://www.w3.org/2000/svg" width="229" height="124" viewBox="0 0 229 124" fill="none"><g clip-path="url(#clip0_1038_222)"><path d="M1 90C1 84.4772 5.47715 80 11 80H131C136.523 80 141 84.4772 141 90V114C141 119.523 136.523 124 131 124H11C5.47716 124 1 119.523 1 114V90Z" fill="#5F5A69"></path><path d="M44.08 96V92.53H40.69V93.41H43.15C43.11 94.14 42.54 95.26 40.96 95.26C39.69 95.26 38.49 94.33 38.49 92.45C38.49 90.57 39.73 89.66 41 89.66C42.1 89.66 42.93 90.26 43.25 91.28L44.14 90.9C43.73 89.62 42.54 88.76 41 88.76C39.25 88.76 37.49 90.05 37.49 92.45C37.49 94.85 39.15 96.15 40.93 96.15C42.12 96.15 42.89 95.56 43.2 95L43.29 96H44.08ZM46.1646 93.1C46.2046 92.48 46.6846 91.87 47.4746 91.87C48.3246 91.87 48.7746 92.41 48.7946 93.1H46.1646ZM48.9346 94.35C48.7546 94.89 48.3646 95.32 47.5846 95.32C46.7746 95.32 46.1546 94.72 46.1346 93.86H49.7546C49.7646 93.8 49.7746 93.68 49.7746 93.56C49.7746 92.06 48.9446 91.04 47.4646 91.04C46.2546 91.04 45.1646 92.07 45.1646 93.58C45.1646 95.21 46.2946 96.15 47.5846 96.15C48.7046 96.15 49.4746 95.48 49.7446 94.63L48.9346 94.35ZM52.2145 89.67H51.3545V90.45C51.3545 90.87 51.1345 91.19 50.6145 91.19H50.3545V92.04H51.2745V94.68C51.2745 95.55 51.7945 96.05 52.6145 96.05C52.9345 96.05 53.1745 95.99 53.2545 95.96V95.16C53.1745 95.18 53.0045 95.2 52.8845 95.2C52.3945 95.2 52.2145 94.98 52.2145 94.54V92.04H53.2545V91.19H52.2145V89.67ZM57.8209 96V91.19H56.8909V96H57.8209ZM56.6809 89.37C56.6809 89.74 56.9809 90.04 57.3509 90.04C57.7309 90.04 58.0309 89.74 58.0309 89.37C58.0309 88.99 57.7309 88.69 57.3509 88.69C56.9809 88.69 56.6809 88.99 56.6809 89.37ZM60.652 89.67H59.792V90.45C59.792 90.87 59.572 91.19 59.052 91.19H58.792V92.04H59.712V94.68C59.712 95.55 60.232 96.05 61.052 96.05C61.372 96.05 61.612 95.99 61.692 95.96V95.16C61.612 95.18 61.442 95.2 61.322 95.2C60.832 95.2 60.652 94.98 60.652 94.54V92.04H61.692V91.19H60.652V89.67ZM67.4684 95.31C66.6684 95.31 65.9684 94.71 65.9684 93.59C65.9684 92.48 66.6684 91.88 67.4684 91.88C68.2684 91.88 68.9684 92.48 68.9684 93.59C68.9684 94.71 68.2684 95.31 67.4684 95.31ZM67.4684 91.04C66.0284 91.04 65.0084 92.13 65.0084 93.59C65.0084 95.06 66.0284 96.15 67.4684 96.15C68.9084 96.15 69.9284 95.06 69.9284 93.59C69.9284 92.13 68.9084 91.04 67.4684 91.04ZM72.0691 93.22C72.0691 92.49 72.4491 91.9 73.1891 91.9C74.0291 91.9 74.3091 92.44 74.3091 93.11V96H75.2491V92.95C75.2491 91.88 74.6791 91.05 73.5291 91.05C72.9691 91.05 72.3991 91.28 72.0491 91.88V91.19H71.1291V96H72.0691V93.22Z" fill="white"></path><path d="M48.6 112V106.096H42.936V108.016H46.52C46.392 108.816 45.576 110.224 43.48 110.224C41.576 110.224 39.896 108.896 39.896 106.336C39.896 103.648 41.752 102.48 43.464 102.48C45.304 102.48 46.248 103.648 46.536 104.656L48.648 103.904C48.088 102.16 46.44 100.416 43.464 100.416C40.392 100.416 37.656 102.672 37.656 106.336C37.656 110 40.264 112.24 43.32 112.24C45.032 112.24 46.152 111.472 46.664 110.704L46.808 112H48.6ZM54.236 110.304C53.196 110.304 52.236 109.536 52.236 108.064C52.236 106.576 53.196 105.824 54.236 105.824C55.276 105.824 56.236 106.576 56.236 108.064C56.236 109.552 55.276 110.304 54.236 110.304ZM54.236 103.888C51.884 103.888 50.108 105.632 50.108 108.064C50.108 110.48 51.884 112.24 54.236 112.24C56.588 112.24 58.364 110.48 58.364 108.064C58.364 105.632 56.588 103.888 54.236 103.888ZM63.7048 110.304C62.6648 110.304 61.7048 109.536 61.7048 108.064C61.7048 106.576 62.6648 105.824 63.7048 105.824C64.7448 105.824 65.7048 106.576 65.7048 108.064C65.7048 109.552 64.7448 110.304 63.7048 110.304ZM63.7048 103.888C61.3528 103.888 59.5768 105.632 59.5768 108.064C59.5768 110.48 61.3528 112.24 63.7048 112.24C66.0568 112.24 67.8328 110.48 67.8328 108.064C67.8328 105.632 66.0568 103.888 63.7048 103.888ZM69.0615 112.432C69.2855 113.936 70.7255 115.28 72.8855 115.28C75.8455 115.28 77.0135 113.312 77.0135 111.152V104.128H74.9655V105.056C74.6935 104.528 73.9735 103.984 72.7255 103.984C70.5655 103.984 69.0615 105.744 69.0615 107.824C69.0615 110.032 70.6295 111.648 72.7255 111.648C73.8615 111.648 74.5975 111.152 74.9175 110.64V111.216C74.9175 112.736 74.1655 113.408 72.8215 113.408C71.8135 113.408 71.1255 112.784 70.9815 111.92L69.0615 112.432ZM73.0935 109.824C71.9895 109.824 71.2055 109.056 71.2055 107.824C71.2055 106.608 72.0375 105.84 73.0935 105.84C74.1175 105.84 74.9495 106.608 74.9495 107.824C74.9495 109.04 74.1815 109.824 73.0935 109.824ZM81.3098 112V100.416H79.1818V112H81.3098ZM85.1586 107.168C85.2066 106.448 85.8146 105.616 86.9186 105.616C88.1346 105.616 88.6466 106.384 88.6786 107.168H85.1586ZM88.8866 109.216C88.6306 109.92 88.0866 110.416 87.0946 110.416C86.0386 110.416 85.1586 109.664 85.1106 108.624H90.7426C90.7426 108.592 90.7746 108.272 90.7746 107.968C90.7746 105.44 89.3186 103.888 86.8866 103.888C84.8706 103.888 83.0146 105.52 83.0146 108.032C83.0146 110.688 84.9186 112.24 87.0786 112.24C89.0146 112.24 90.2626 111.104 90.6626 109.744L88.8866 109.216ZM98.7551 105.824V102.576H100.499C101.603 102.576 102.275 103.2 102.275 104.208C102.275 105.184 101.603 105.824 100.499 105.824H98.7551ZM100.771 107.728C103.011 107.728 104.499 106.256 104.499 104.192C104.499 102.144 103.011 100.656 100.771 100.656H96.5311V112H98.7391V107.728H100.771ZM108.107 112V100.416H105.979V112H108.107ZM109.812 109.856C109.812 111.088 110.836 112.224 112.516 112.224C113.684 112.224 114.436 111.68 114.836 111.056C114.836 111.36 114.868 111.792 114.916 112H116.868C116.82 111.728 116.772 111.168 116.772 110.752V106.88C116.772 105.296 115.844 103.888 113.348 103.888C111.236 103.888 110.1 105.248 109.972 106.48L111.86 106.88C111.924 106.192 112.436 105.6 113.364 105.6C114.26 105.6 114.692 106.064 114.692 106.624C114.692 106.896 114.548 107.12 114.1 107.184L112.164 107.472C110.852 107.664 109.812 108.448 109.812 109.856ZM112.964 110.64C112.276 110.64 111.94 110.192 111.94 109.728C111.94 109.12 112.372 108.816 112.916 108.736L114.692 108.464V108.816C114.692 110.208 113.86 110.64 112.964 110.64ZM121.452 115.104L126.396 104.128H124.124L122.188 108.736L120.092 104.128H117.708L121.052 111.008L119.196 115.104H121.452Z" fill="white"></path><path d="M13.2802 91.48C12.9905 91.8277 12.8443 92.2727 12.8713 92.7245V112.387C12.8443 112.838 12.9905 113.283 13.2802 113.631L13.3425 113.693L24.3558 102.689V102.431L13.3425 91.4178L13.2802 91.48Z" fill="#D2D1D5"></path><path d="M27.9999 106.36L24.3555 102.689V102.431L27.9999 98.7511L28.0799 98.7955L32.4444 101.276C33.6888 101.978 33.6888 103.133 32.4444 103.844L28.0977 106.316L27.9999 106.36Z" fill="#D2D1D5"></path><path d="M28.1069 106.307L24.3558 102.556L13.2803 113.631C13.8036 114.091 14.5802 114.114 15.1292 113.684L28.1158 106.307" fill="white"></path><path d="M28.1066 98.8045L15.1199 91.4267C14.5709 90.9976 13.7943 91.02 13.271 91.48L24.3554 102.556L28.1066 98.8045Z" fill="white"></path><path opacity="0.2" d="M28.0003 106.227L15.1203 113.56C14.5932 113.954 13.8696 113.954 13.3425 113.56L13.2803 113.622L13.3425 113.684C13.8686 114.082 14.5942 114.082 15.1203 113.684L28.1069 106.307L28.0003 106.227Z" fill="black"></path><path opacity="0.12" fill-rule="evenodd" clip-rule="evenodd" d="M28.0002 106.227L32.4447 103.711C32.904 103.484 33.2323 103.058 33.3336 102.556C33.2878 103.111 32.9487 103.599 32.4447 103.836L28.0802 106.307L28.0002 106.227ZM12.8694 112.435C12.8841 112.826 13.0276 113.204 13.2802 113.507L13.3425 113.578L13.2802 113.64C12.999 113.303 12.853 112.873 12.8694 112.435ZM12.8694 112.435C12.8699 112.422 12.8706 112.409 12.8713 112.396V112.262C12.8679 112.32 12.8673 112.378 12.8694 112.435Z" fill="black"></path><path opacity="0.25" d="M15.1201 91.5511L32.4445 101.4C32.9038 101.627 33.2321 102.053 33.3334 102.556C33.2876 102.001 32.9486 101.512 32.4445 101.276L15.1201 91.4267C13.8756 90.7244 12.8623 91.3111 12.8623 92.7333V92.8667C12.889 91.4355 13.8845 90.8489 15.1201 91.5511Z" fill="white"></path></g><path d="M0.576 47.372H6.3V50H8.01V47.372H10.008V45.734H8.01V38.336H5.58L0.576 45.338V47.372ZM6.3 45.734H2.196L6.3 40.028V45.734ZM11.59 48.848C11.59 49.55 12.13 50.09 12.832 50.09C13.534 50.09 14.092 49.55 14.092 48.848C14.092 48.146 13.534 47.588 12.832 47.588C12.13 47.588 11.59 48.146 11.59 48.848ZM23.6263 38.336H15.1123V39.956H21.6823C21.6823 39.956 17.3983 43.214 16.8763 50H18.6943C19.2523 43.826 22.5463 40.892 23.6263 40.028V38.336Z" fill="#212121"></path><path d="M32.3101 37.238H30.6721L24.4981 50H26.1361L32.3101 37.238ZM33.0788 46.832C33.2408 48.668 34.9148 50.288 37.3988 50.288C39.9908 50.288 41.6828 48.506 41.6828 46.31C41.6828 43.898 40.0088 42.44 37.7228 42.44C36.8048 42.44 35.8688 42.728 35.3468 43.304L36.2108 39.956H41.1968V38.336H35.0408L33.5288 44.132C34.1228 44.348 34.6448 44.582 35.2568 44.816C35.7608 44.294 36.5528 43.97 37.3808 43.97C38.7308 43.97 39.9008 44.78 39.9008 46.382C39.9008 47.822 38.7848 48.74 37.3988 48.74C35.9408 48.74 34.8788 47.768 34.7708 46.328L33.0788 46.832ZM65.4166 45.572V44.096H48.2626V45.572H65.4166ZM76.8665 42.872V41.342H74.7785V39.974C74.7785 38.786 75.5525 38.498 76.1465 38.498C76.5785 38.498 76.7945 38.57 76.8845 38.606V37.094C76.8125 37.04 76.4525 36.914 75.8765 36.914C74.3105 36.914 73.0325 37.958 73.0325 39.884V41.342H71.4305V42.872H73.0325V50H74.7785V42.872H76.8665ZM83.4299 41.252C83.3399 41.234 83.1059 41.198 82.8719 41.198C81.9899 41.198 80.9099 41.522 80.2799 42.854V41.342H78.6239V50H80.3159V45.662C80.3159 43.754 81.2699 42.998 82.6919 42.998C82.9259 42.998 83.1779 43.016 83.4299 43.052V41.252ZM88.8567 48.758C87.4167 48.758 86.1567 47.678 86.1567 45.662C86.1567 43.664 87.4167 42.584 88.8567 42.584C90.2967 42.584 91.5567 43.664 91.5567 45.662C91.5567 47.678 90.2967 48.758 88.8567 48.758ZM88.8567 41.072C86.2647 41.072 84.4287 43.034 84.4287 45.662C84.4287 48.308 86.2647 50.27 88.8567 50.27C91.4487 50.27 93.2847 48.308 93.2847 45.662C93.2847 43.034 91.4487 41.072 88.8567 41.072ZM97.1201 50V44.78C97.1201 43.484 97.9301 42.584 99.1361 42.584C100.432 42.584 100.972 43.448 100.972 44.564V50H102.664V44.762C102.664 43.52 103.474 42.584 104.662 42.584C105.94 42.584 106.498 43.43 106.498 44.564V50H108.172V44.384C108.172 42.116 106.696 41.09 105.184 41.09C104.086 41.09 102.97 41.486 102.286 42.728C101.818 41.612 100.774 41.09 99.6941 41.09C98.6861 41.09 97.6061 41.54 97.0661 42.494V41.342H95.4461V50H97.1201ZM119.017 50V38.336H117.469C117.199 39.596 116.083 40.496 114.463 40.532V41.774H117.289V50H119.017ZM121.348 48.848C121.348 49.622 121.888 50.072 122.554 50.072C122.752 50.072 122.896 50.018 122.95 49.982C122.932 50.846 122.338 51.728 121.456 51.926V52.862C122.572 52.718 124.12 51.728 124.12 49.352C124.12 48.218 123.436 47.642 122.662 47.642C121.906 47.642 121.348 48.2 121.348 48.848ZM127.522 44.168C127.522 42.386 127.846 41.126 128.548 40.388C128.998 39.92 129.574 39.632 130.402 39.632C131.23 39.632 131.806 39.92 132.256 40.388C132.958 41.126 133.282 42.386 133.282 44.168C133.282 45.95 132.958 47.21 132.256 47.948C131.806 48.416 131.23 48.704 130.402 48.704C129.574 48.704 128.998 48.416 128.548 47.948C127.846 47.21 127.522 45.95 127.522 44.168ZM125.776 44.168C125.776 45.77 126.046 47.246 126.82 48.398C127.576 49.532 128.746 50.27 130.402 50.27C132.058 50.27 133.228 49.532 133.984 48.398C134.758 47.246 135.028 45.77 135.028 44.168C135.028 42.566 134.758 41.09 133.984 39.938C133.228 38.804 132.058 38.066 130.402 38.066C128.746 38.066 127.576 38.804 126.82 39.938C126.046 41.09 125.776 42.566 125.776 44.168ZM138.684 44.168C138.684 42.386 139.008 41.126 139.71 40.388C140.16 39.92 140.736 39.632 141.564 39.632C142.392 39.632 142.968 39.92 143.418 40.388C144.12 41.126 144.444 42.386 144.444 44.168C144.444 45.95 144.12 47.21 143.418 47.948C142.968 48.416 142.392 48.704 141.564 48.704C140.736 48.704 140.16 48.416 139.71 47.948C139.008 47.21 138.684 45.95 138.684 44.168ZM136.938 44.168C136.938 45.77 137.208 47.246 137.982 48.398C138.738 49.532 139.908 50.27 141.564 50.27C143.22 50.27 144.39 49.532 145.146 48.398C145.92 47.246 146.19 45.77 146.19 44.168C146.19 42.566 145.92 41.09 145.146 39.938C144.39 38.804 143.22 38.066 141.564 38.066C139.908 38.066 138.738 38.804 137.982 39.938C137.208 41.09 136.938 42.566 136.938 44.168ZM149.846 44.168C149.846 42.386 150.17 41.126 150.872 40.388C151.322 39.92 151.898 39.632 152.726 39.632C153.554 39.632 154.13 39.92 154.58 40.388C155.282 41.126 155.606 42.386 155.606 44.168C155.606 45.95 155.282 47.21 154.58 47.948C154.13 48.416 153.554 48.704 152.726 48.704C151.898 48.704 151.322 48.416 150.872 47.948C150.17 47.21 149.846 45.95 149.846 44.168ZM148.1 44.168C148.1 45.77 148.37 47.246 149.144 48.398C149.9 49.532 151.07 50.27 152.726 50.27C154.382 50.27 155.552 49.532 156.308 48.398C157.082 47.246 157.352 45.77 157.352 44.168C157.352 42.566 157.082 41.09 156.308 39.938C155.552 38.804 154.382 38.066 152.726 38.066C151.07 38.066 149.9 38.804 149.144 39.938C148.37 41.09 148.1 42.566 148.1 44.168ZM159.011 44.114V45.536H162.377V49.082H163.853V45.536H167.237V44.114H163.853V40.604H162.377V44.114H159.011ZM178.651 41.252C178.561 41.234 178.327 41.198 178.093 41.198C177.211 41.198 176.131 41.522 175.501 42.854V41.342H173.845V50H175.537V45.662C175.537 43.754 176.491 42.998 177.913 42.998C178.147 42.998 178.399 43.016 178.651 43.052V41.252ZM179.808 47.678C179.808 49.046 180.942 50.27 182.706 50.27C184.254 50.27 185.118 49.442 185.496 48.83C185.496 49.46 185.55 49.784 185.586 50H187.242C187.206 49.784 187.134 49.334 187.134 48.578V44.24C187.134 42.548 186.126 41.072 183.534 41.072C181.662 41.072 180.168 42.224 179.988 43.88L181.608 44.258C181.716 43.25 182.382 42.512 183.57 42.512C184.884 42.512 185.442 43.214 185.442 44.06C185.442 44.366 185.298 44.636 184.776 44.708L182.436 45.05C180.942 45.266 179.808 46.13 179.808 47.678ZM182.94 48.848C182.076 48.848 181.536 48.236 181.536 47.588C181.536 46.814 182.076 46.4 182.796 46.292L185.442 45.896V46.292C185.442 48.182 184.326 48.848 182.94 48.848ZM192.093 38.606H190.545V40.01C190.545 40.766 190.149 41.342 189.213 41.342H188.745V42.872H190.401V47.624C190.401 49.19 191.337 50.09 192.813 50.09C193.389 50.09 193.821 49.982 193.965 49.928V48.488C193.821 48.524 193.515 48.56 193.299 48.56C192.417 48.56 192.093 48.164 192.093 47.372V42.872H193.965V41.342H192.093V38.606ZM197.649 50V41.342H195.975V50H197.649ZM195.597 38.066C195.597 38.732 196.137 39.272 196.803 39.272C197.487 39.272 198.027 38.732 198.027 38.066C198.027 37.382 197.487 36.842 196.803 36.842C196.137 36.842 195.597 37.382 195.597 38.066ZM202.08 44.996C202.08 43.682 202.764 42.62 204.096 42.62C205.608 42.62 206.112 43.592 206.112 44.798V50H207.804V44.51C207.804 42.584 206.778 41.09 204.708 41.09C203.7 41.09 202.674 41.504 202.044 42.584V41.342H200.388V50H202.08V44.996ZM209.866 50.468C210.082 52.322 211.702 53.69 213.862 53.69C217.12 53.69 218.2 51.548 218.2 49.352V41.342H216.526V42.548C216.094 41.684 215.194 41.18 213.862 41.18C211.486 41.18 209.884 43.052 209.884 45.392C209.884 47.84 211.558 49.586 213.862 49.586C215.158 49.586 216.094 48.956 216.508 48.164V49.406C216.508 51.278 215.68 52.214 213.862 52.214C212.548 52.214 211.63 51.296 211.504 50.09L209.866 50.468ZM214.114 48.164C212.584 48.164 211.612 47.084 211.612 45.392C211.612 43.718 212.62 42.62 214.114 42.62C215.572 42.62 216.58 43.718 216.58 45.392C216.58 47.066 215.572 48.164 214.114 48.164ZM220.252 47.75C220.396 48.74 221.404 50.27 223.78 50.27C225.922 50.27 226.948 48.812 226.948 47.588C226.948 46.31 226.12 45.356 224.554 45.014L223.15 44.708C222.484 44.564 222.16 44.186 222.16 43.664C222.16 43.07 222.736 42.512 223.6 42.512C224.968 42.512 225.328 43.502 225.4 43.952L226.894 43.394C226.714 42.62 225.976 41.072 223.6 41.072C221.908 41.072 220.522 42.332 220.522 43.808C220.522 45.032 221.332 45.95 222.682 46.238L224.158 46.562C224.878 46.724 225.274 47.138 225.274 47.678C225.274 48.29 224.752 48.83 223.798 48.83C222.574 48.83 221.89 48.11 221.782 47.21L220.252 47.75Z" fill="#7C7884"></path><path d="M10.9858 16.3819C11.3024 16.192 11.6979 16.192 12.0146 16.3819L16.0179 18.7832C16.776 19.2379 17.7079 18.5576 17.5058 17.697L16.4478 13.1906C16.3625 12.8277 16.4863 12.4474 16.7689 12.2042L20.2873 9.17519C20.959 8.59691 20.602 7.49532 19.7188 7.42088L15.0765 7.0296C14.7075 6.9985 14.3859 6.76605 14.2406 6.42544L12.42 2.15669C12.0744 1.34644 10.9259 1.34643 10.5803 2.15669L8.75971 6.42544C8.61444 6.76605 8.29284 6.9985 7.92386 7.0296L3.28152 7.42088C2.39831 7.49532 2.04137 8.59691 2.71308 9.17519L6.23149 12.2042C6.51404 12.4474 6.6378 12.8277 6.55259 13.1906L5.49451 17.697C5.29247 18.5576 6.2244 19.2379 6.98242 18.7832L10.9858 16.3819Z" fill="#F05A3C"></path><path d="M37.9858 16.3819C38.3024 16.192 38.6979 16.192 39.0146 16.3819L43.0179 18.7832C43.776 19.2379 44.7079 18.5576 44.5058 17.697L43.4478 13.1906C43.3625 12.8277 43.4863 12.4474 43.7689 12.2042L47.2873 9.17519C47.959 8.59691 47.602 7.49532 46.7188 7.42088L42.0765 7.0296C41.7075 6.9985 41.3859 6.76605 41.2406 6.42544L39.42 2.15669C39.0744 1.34644 37.9259 1.34643 37.5803 2.15669L35.7597 6.42544C35.6144 6.76605 35.2928 6.9985 34.9239 7.0296L30.2815 7.42088C29.3983 7.49532 29.0414 8.59691 29.7131 9.17519L33.2315 12.2042C33.514 12.4474 33.6378 12.8277 33.5526 13.1906L32.4945 17.697C32.2925 18.5576 33.2244 19.2379 33.9824 18.7832L37.9858 16.3819Z" fill="#F05A3C"></path><path d="M64.9858 16.3819C65.3024 16.192 65.6979 16.192 66.0146 16.3819L70.0179 18.7832C70.776 19.2379 71.7079 18.5576 71.5058 17.697L70.4478 13.1906C70.3625 12.8277 70.4863 12.4474 70.7689 12.2042L74.2873 9.17519C74.959 8.59691 74.602 7.49532 73.7188 7.42088L69.0765 7.0296C68.7075 6.9985 68.3859 6.76605 68.2406 6.42544L66.42 2.15669C66.0744 1.34644 64.9259 1.34643 64.5803 2.15669L62.7597 6.42544C62.6144 6.76605 62.2928 6.9985 61.9239 7.0296L57.2815 7.42088C56.3983 7.49532 56.0414 8.59691 56.7131 9.17519L60.2315 12.2042C60.514 12.4474 60.6378 12.8277 60.5526 13.1906L59.4945 17.697C59.2925 18.5576 60.2244 19.2379 60.9824 18.7832L64.9858 16.3819Z" fill="#F05A3C"></path><path d="M90.9858 16.3819C91.3024 16.192 91.6979 16.192 92.0146 16.3819L96.0179 18.7832C96.776 19.2379 97.7079 18.5576 97.5058 17.697L96.4478 13.1906C96.3625 12.8277 96.4863 12.4474 96.7689 12.2042L100.287 9.17519C100.959 8.59691 100.602 7.49532 99.7188 7.42088L95.0765 7.0296C94.7075 6.9985 94.3859 6.76605 94.2406 6.42544L92.42 2.15669C92.0744 1.34644 90.9259 1.34643 90.5803 2.15669L88.7597 6.42544C88.6144 6.76605 88.2928 6.9985 87.9239 7.0296L83.2815 7.42088C82.3983 7.49532 82.0414 8.59691 82.7131 9.17519L86.2315 12.2042C86.514 12.4474 86.6378 12.8277 86.5526 13.1906L85.4945 17.697C85.2925 18.5576 86.2244 19.2379 86.9824 18.7832L90.9858 16.3819Z" fill="#F05A3C"></path><path d="M117.986 16.3819C118.302 16.192 118.698 16.192 119.015 16.3819L123.018 18.7832C123.776 19.2379 124.708 18.5576 124.506 17.697L123.448 13.1906C123.363 12.8277 123.486 12.4474 123.769 12.2042L127.287 9.17519C127.959 8.59691 127.602 7.49532 126.719 7.42088L122.076 7.0296C121.708 6.9985 121.386 6.76605 121.241 6.42544L119.42 2.15669C119.074 1.34644 117.926 1.34643 117.58 2.15669L115.76 6.42544C115.614 6.76605 115.293 6.9985 114.924 7.0296L110.282 7.42088C109.398 7.49532 109.041 8.59691 109.713 9.17519L113.231 12.2042C113.514 12.4474 113.638 12.8277 113.553 13.1906L112.495 17.697C112.292 18.5576 113.224 19.2379 113.982 18.7832L117.986 16.3819Z" fill="#D2D1D5"></path><mask id="mask0_1038_222" style="mask-type:alpha" maskUnits="userSpaceOnUse" x="109" y="1" width="19" height="18"><path d="M117.986 16.3819C118.302 16.192 118.698 16.192 119.015 16.3819L123.018 18.7832C123.776 19.2379 124.708 18.5576 124.506 17.697L123.448 13.1906C123.363 12.8277 123.486 12.4474 123.769 12.2042L127.287 9.17519C127.959 8.59691 127.602 7.49532 126.719 7.42088L122.076 7.0296C121.708 6.9985 121.386 6.76605 121.241 6.42544L119.42 2.15669C119.074 1.34644 117.926 1.34643 117.58 2.15669L115.76 6.42544C115.614 6.76605 115.293 6.9985 114.924 7.0296L110.282 7.42088C109.398 7.49532 109.041 8.59691 109.713 9.17519L113.231 12.2042C113.514 12.4474 113.638 12.8277 113.553 13.1906L112.495 17.697C112.292 18.5576 113.224 19.2379 113.982 18.7832L117.986 16.3819Z" fill="white"></path></mask><g mask="url(#mask0_1038_222)"><path d="M118.015 16.3646C118.316 16.1839 118.5 15.8584 118.5 15.5071V0L115.76 6.42544C115.614 6.76605 115.293 6.9985 114.924 7.0296L110.282 7.42088C109.398 7.49532 109.041 8.59691 109.713 9.17519L113.231 12.2042C113.514 12.4474 113.638 12.8277 113.553 13.1906L112.495 17.697C112.292 18.5576 113.224 19.2379 113.982 18.7832L118.015 16.3646Z" fill="#F05A3C"></path></g><defs><clipPath id="clip0_1038_222"><rect width="147.742" height="44" fill="white" transform="translate(1.05518 80)"></rect></clipPath></defs></svg> 