<?xml version="1.0" encoding="UTF-8"?> <svg xmlns="http://www.w3.org/2000/svg" width="213" height="124" viewBox="0 0 213 124" fill="none"><path d="M1 90C1 84.4772 5.47715 80 11 80H123C128.523 80 133 84.4772 133 90V114C133 119.523 128.523 124 123 124H11C5.47715 124 1 119.523 1 114V90Z" fill="#5F5A69"></path><path d="M38.93 96.13V90.78H40.4C41.71 90.78 42.79 91.68 42.79 93.47C42.79 95.25 41.69 96.13 40.38 96.13H38.93ZM40.41 97C42.21 97 43.8 95.79 43.8 93.47C43.8 91.14 42.23 89.91 40.43 89.91H37.95V97H40.41ZM47.2047 96.31C46.4047 96.31 45.7047 95.71 45.7047 94.59C45.7047 93.48 46.4047 92.88 47.2047 92.88C48.0047 92.88 48.7047 93.48 48.7047 94.59C48.7047 95.71 48.0047 96.31 47.2047 96.31ZM47.2047 92.04C45.7647 92.04 44.7447 93.13 44.7447 94.59C44.7447 96.06 45.7647 97.15 47.2047 97.15C48.6447 97.15 49.6647 96.06 49.6647 94.59C49.6647 93.13 48.6447 92.04 47.2047 92.04ZM53.618 92.19L52.368 95.81L51.288 92.19H50.258L51.838 97H52.828L54.078 93.34L55.358 97H56.328L57.888 92.19H56.898L55.838 95.81L54.588 92.19H53.618ZM59.8621 94.22C59.8621 93.49 60.2421 92.9 60.9821 92.9C61.8221 92.9 62.1021 93.44 62.1021 94.11V97H63.0421V93.95C63.0421 92.88 62.4721 92.05 61.3221 92.05C60.7621 92.05 60.1921 92.28 59.8421 92.88V92.19H58.9221V97H59.8621V94.22ZM65.448 97V89.76H64.508V97H65.448ZM69.109 96.31C68.309 96.31 67.609 95.71 67.609 94.59C67.609 93.48 68.309 92.88 69.109 92.88C69.909 92.88 70.609 93.48 70.609 94.59C70.609 95.71 69.909 96.31 69.109 96.31ZM69.109 92.04C67.669 92.04 66.649 93.13 66.649 94.59C66.649 96.06 67.669 97.15 69.109 97.15C70.549 97.15 71.569 96.06 71.569 94.59C71.569 93.13 70.549 92.04 69.109 92.04ZM72.4498 95.71C72.4498 96.47 73.0798 97.15 74.0598 97.15C74.9198 97.15 75.3998 96.69 75.6098 96.35C75.6098 96.7 75.6398 96.88 75.6598 97H76.5798C76.5598 96.88 76.5198 96.63 76.5198 96.21V93.8C76.5198 92.86 75.9598 92.04 74.5198 92.04C73.4798 92.04 72.6498 92.68 72.5498 93.6L73.4498 93.81C73.5098 93.25 73.8798 92.84 74.5398 92.84C75.2698 92.84 75.5798 93.23 75.5798 93.7C75.5798 93.87 75.4998 94.02 75.2098 94.06L73.9098 94.25C73.0798 94.37 72.4498 94.85 72.4498 95.71ZM74.1898 96.36C73.7098 96.36 73.4098 96.02 73.4098 95.66C73.4098 95.23 73.7098 95 74.1098 94.94L75.5798 94.72V94.94C75.5798 95.99 74.9598 96.36 74.1898 96.36ZM78.6541 94.58C78.6541 93.59 79.2141 92.89 80.0741 92.89C80.9341 92.89 81.4541 93.57 81.4541 94.56C81.4541 95.55 80.9241 96.3 80.0641 96.3C79.1641 96.3 78.6541 95.57 78.6541 94.58ZM81.4641 96.35C81.4641 96.64 81.4941 96.89 81.5141 97H82.4241C82.4141 96.92 82.3741 96.57 82.3741 96.11V89.76H81.4441V92.87C81.2841 92.48 80.8241 92.06 79.9741 92.06C78.6141 92.06 77.6941 93.22 77.6941 94.58C77.6941 96.01 78.5641 97.13 79.9741 97.13C80.7241 97.13 81.2341 96.73 81.4641 96.27V96.35ZM88.5621 96.31C87.7621 96.31 87.0621 95.71 87.0621 94.59C87.0621 93.48 87.7621 92.88 88.5621 92.88C89.3621 92.88 90.0621 93.48 90.0621 94.59C90.0621 95.71 89.3621 96.31 88.5621 96.31ZM88.5621 92.04C87.1221 92.04 86.1021 93.13 86.1021 94.59C86.1021 96.06 87.1221 97.15 88.5621 97.15C90.0021 97.15 91.0221 96.06 91.0221 94.59C91.0221 93.13 90.0021 92.04 88.5621 92.04ZM93.1629 94.22C93.1629 93.49 93.5429 92.9 94.2829 92.9C95.1229 92.9 95.4029 93.44 95.4029 94.11V97H96.3429V93.95C96.3429 92.88 95.7729 92.05 94.6229 92.05C94.0629 92.05 93.4929 92.28 93.1429 92.88V92.19H92.2229V97H93.1629V94.22ZM101.453 90.67H100.593V91.45C100.593 91.87 100.373 92.19 99.8528 92.19H99.5928V93.04H100.513V95.68C100.513 96.55 101.033 97.05 101.853 97.05C102.173 97.05 102.413 96.99 102.493 96.96V96.16C102.413 96.18 102.243 96.2 102.123 96.2C101.633 96.2 101.453 95.98 101.453 95.54V93.04H102.493V92.19H101.453V90.67ZM104.55 94.17C104.57 93.46 104.95 92.9 105.67 92.9C106.51 92.9 106.79 93.44 106.79 94.11V97H107.73V93.95C107.73 92.88 107.16 92.05 106.01 92.05C105.46 92.05 104.9 92.24 104.55 92.75V89.76H103.61V97H104.55V94.17ZM109.876 94.1C109.916 93.48 110.396 92.87 111.186 92.87C112.036 92.87 112.486 93.41 112.506 94.1H109.876ZM112.646 95.35C112.466 95.89 112.076 96.32 111.296 96.32C110.486 96.32 109.866 95.72 109.846 94.86H113.466C113.476 94.8 113.486 94.68 113.486 94.56C113.486 93.06 112.656 92.04 111.176 92.04C109.966 92.04 108.876 93.07 108.876 94.58C108.876 96.21 110.006 97.15 111.296 97.15C112.416 97.15 113.186 96.48 113.456 95.63L112.646 95.35Z" fill="white"></path><path d="M45.976 113H48.376L44.056 101.656H41.496L37.144 113H39.48L40.424 110.408H45.032L45.976 113ZM42.728 104.104L44.296 108.392H41.16L42.728 104.104ZM51.7473 116.04V112.232C52.1313 112.76 52.9313 113.192 54.0193 113.192C56.2433 113.192 57.7313 111.432 57.7313 109.048C57.7313 106.712 56.4033 104.952 54.0993 104.952C52.9153 104.952 52.0353 105.48 51.6833 106.088V105.128H49.6193V116.04H51.7473ZM55.6353 109.064C55.6353 110.472 54.7713 111.288 53.6833 111.288C52.5953 111.288 51.7153 110.456 51.7153 109.064C51.7153 107.672 52.5953 106.856 53.6833 106.856C54.7713 106.856 55.6353 107.672 55.6353 109.064ZM61.5754 116.04V112.232C61.9594 112.76 62.7594 113.192 63.8474 113.192C66.0714 113.192 67.5594 111.432 67.5594 109.048C67.5594 106.712 66.2314 104.952 63.9274 104.952C62.7434 104.952 61.8634 105.48 61.5114 106.088V105.128H59.4474V116.04H61.5754ZM65.4634 109.064C65.4634 110.472 64.5994 111.288 63.5114 111.288C62.4234 111.288 61.5434 110.456 61.5434 109.064C61.5434 107.672 62.4234 106.856 63.5114 106.856C64.5994 106.856 65.4634 107.672 65.4634 109.064ZM80.9604 104.36C80.7044 103.08 79.6484 101.416 76.8964 101.416C74.7524 101.416 72.9444 102.952 72.9444 104.968C72.9444 106.68 74.1124 107.848 75.9204 108.216L77.5044 108.536C78.3844 108.712 78.8804 109.224 78.8804 109.88C78.8804 110.68 78.2244 111.272 77.0404 111.272C75.4404 111.272 74.6564 110.264 74.5604 109.144L72.5124 109.688C72.6884 111.304 74.0164 113.24 77.0244 113.24C79.6644 113.24 81.1204 111.48 81.1204 109.736C81.1204 108.136 80.0164 106.792 77.9524 106.392L76.3684 106.088C75.5364 105.928 75.1364 105.432 75.1364 104.808C75.1364 104.056 75.8404 103.368 76.9124 103.368C78.3524 103.368 78.8644 104.344 78.9764 104.968L80.9604 104.36ZM85.4654 102.776H83.5454V103.88C83.5454 104.584 83.1614 105.128 82.3294 105.128H81.9294V107.016H83.3534V110.68C83.3534 112.2 84.3134 113.112 85.8494 113.112C86.4734 113.112 86.8574 113 87.0494 112.92V111.16C86.9374 111.192 86.6494 111.224 86.3934 111.224C85.7854 111.224 85.4654 111 85.4654 110.312V107.016H87.0494V105.128H85.4654V102.776ZM92.3298 111.304C91.2898 111.304 90.3298 110.536 90.3298 109.064C90.3298 107.576 91.2898 106.824 92.3298 106.824C93.3698 106.824 94.3298 107.576 94.3298 109.064C94.3298 110.552 93.3698 111.304 92.3298 111.304ZM92.3298 104.888C89.9778 104.888 88.2018 106.632 88.2018 109.064C88.2018 111.48 89.9778 113.24 92.3298 113.24C94.6818 113.24 96.4578 111.48 96.4578 109.064C96.4578 106.632 94.6818 104.888 92.3298 104.888ZM102.951 105.096C102.791 105.08 102.631 105.064 102.455 105.064C101.783 105.064 100.695 105.256 100.215 106.296V105.128H98.1505V113H100.279V109.4C100.279 107.704 101.223 107.176 102.311 107.176C102.503 107.176 102.711 107.192 102.951 107.24V105.096ZM105.94 108.168C105.988 107.448 106.596 106.616 107.7 106.616C108.916 106.616 109.428 107.384 109.46 108.168H105.94ZM109.668 110.216C109.412 110.92 108.868 111.416 107.876 111.416C106.82 111.416 105.94 110.664 105.892 109.624H111.524C111.524 109.592 111.556 109.272 111.556 108.968C111.556 106.44 110.1 104.888 107.668 104.888C105.652 104.888 103.796 106.52 103.796 109.032C103.796 111.688 105.7 113.24 107.86 113.24C109.796 113.24 111.044 112.104 111.444 110.744L109.668 110.216Z" fill="white"></path><path fill-rule="evenodd" clip-rule="evenodd" d="M25.1053 91C25.1942 92.1611 24.827 93.3112 24.0817 94.2059C23.3585 95.1053 22.2628 95.6234 21.1089 95.6115C21.0355 94.4838 21.4134 93.3732 22.1593 92.5243C22.9147 91.6638 23.9666 91.1196 25.1053 91ZM28.7549 97.8225C27.4274 98.6386 26.6106 100.078 26.5905 101.636C26.5924 103.399 27.6481 104.99 29.2717 105.676C28.9594 106.691 28.4887 107.649 27.8771 108.517C27.0556 109.745 26.1944 110.946 24.8274 110.968C24.1772 110.983 23.7384 110.796 23.2811 110.601C22.8041 110.398 22.307 110.186 21.5292 110.186C20.7043 110.186 20.185 110.405 19.6842 110.616C19.2514 110.798 18.8323 110.974 18.2418 110.999C16.9399 111.047 15.945 109.687 15.0937 108.47C13.3922 105.984 12.0672 101.464 13.8435 98.3891C14.6776 96.8902 16.2372 95.9391 17.9516 95.8837C18.69 95.8685 19.3985 96.1531 20.0196 96.4026C20.4947 96.5934 20.9186 96.7637 21.2658 96.7637C21.571 96.7637 21.9831 96.6001 22.4634 96.4095C23.22 96.1092 24.1458 95.7418 25.0892 95.8408C26.5551 95.8867 27.9136 96.6211 28.7549 97.8225Z" fill="white"></path><path d="M0.576 47.372H6.3V50H8.01V47.372H10.008V45.734H8.01V38.336H5.58L0.576 45.338V47.372ZM6.3 45.734H2.196L6.3 40.028V45.734ZM11.59 48.848C11.59 49.55 12.13 50.09 12.832 50.09C13.534 50.09 14.092 49.55 14.092 48.848C14.092 48.146 13.534 47.588 12.832 47.588C12.13 47.588 11.59 48.146 11.59 48.848ZM15.7116 46.832C15.8736 48.668 17.5476 50.288 20.0316 50.288C22.6236 50.288 24.3156 48.506 24.3156 46.31C24.3156 43.898 22.6416 42.44 20.3556 42.44C19.4376 42.44 18.5016 42.728 17.9796 43.304L18.8436 39.956H23.8296V38.336H17.6736L16.1616 44.132C16.7556 44.348 17.2776 44.582 17.8896 44.816C18.3936 44.294 19.1856 43.97 20.0136 43.97C21.3636 43.97 22.5336 44.78 22.5336 46.382C22.5336 47.822 21.4176 48.74 20.0316 48.74C18.5736 48.74 17.5116 47.768 17.4036 46.328L15.7116 46.832Z" fill="#212121"></path><path d="M33.4703 37.238H31.8323L25.6583 50H27.2963L33.4703 37.238ZM34.239 46.832C34.401 48.668 36.075 50.288 38.559 50.288C41.151 50.288 42.843 48.506 42.843 46.31C42.843 43.898 41.169 42.44 38.883 42.44C37.965 42.44 37.029 42.728 36.507 43.304L37.371 39.956H42.357V38.336H36.201L34.689 44.132C35.283 44.348 35.805 44.582 36.417 44.816C36.921 44.294 37.713 43.97 38.541 43.97C39.891 43.97 41.061 44.78 41.061 46.382C41.061 47.822 39.945 48.74 38.559 48.74C37.101 48.74 36.039 47.768 35.931 46.328L34.239 46.832ZM66.5768 45.572V44.096H49.4228V45.572H66.5768ZM78.0266 42.872V41.342H75.9386V39.974C75.9386 38.786 76.7126 38.498 77.3066 38.498C77.7386 38.498 77.9546 38.57 78.0446 38.606V37.094C77.9726 37.04 77.6126 36.914 77.0366 36.914C75.4706 36.914 74.1926 37.958 74.1926 39.884V41.342H72.5906V42.872H74.1926V50H75.9386V42.872H78.0266ZM84.59 41.252C84.5 41.234 84.266 41.198 84.032 41.198C83.15 41.198 82.07 41.522 81.44 42.854V41.342H79.784V50H81.476V45.662C81.476 43.754 82.43 42.998 83.852 42.998C84.086 42.998 84.338 43.016 84.59 43.052V41.252ZM90.0169 48.758C88.5769 48.758 87.3169 47.678 87.3169 45.662C87.3169 43.664 88.5769 42.584 90.0169 42.584C91.4569 42.584 92.7169 43.664 92.7169 45.662C92.7169 47.678 91.4569 48.758 90.0169 48.758ZM90.0169 41.072C87.4249 41.072 85.5889 43.034 85.5889 45.662C85.5889 48.308 87.4249 50.27 90.0169 50.27C92.6089 50.27 94.4449 48.308 94.4449 45.662C94.4449 43.034 92.6089 41.072 90.0169 41.072ZM98.2803 50V44.78C98.2803 43.484 99.0903 42.584 100.296 42.584C101.592 42.584 102.132 43.448 102.132 44.564V50H103.824V44.762C103.824 43.52 104.634 42.584 105.822 42.584C107.1 42.584 107.658 43.43 107.658 44.564V50H109.332V44.384C109.332 42.116 107.856 41.09 106.344 41.09C105.246 41.09 104.13 41.486 103.446 42.728C102.978 41.612 101.934 41.09 100.854 41.09C99.8463 41.09 98.7663 41.54 98.2263 42.494V41.342H96.6063V50H98.2803ZM120.177 50V38.336H118.629C118.359 39.596 117.243 40.496 115.623 40.532V41.774H118.449V50H120.177ZM126.522 50V38.336H124.974C124.704 39.596 123.588 40.496 121.968 40.532V41.774H124.794V50H126.522ZM137.278 38.714C136.738 38.336 135.82 38.066 134.758 38.066C131.356 38.066 128.746 40.532 128.746 44.87C128.746 48.722 131.068 50.27 133.3 50.27C135.586 50.27 137.62 48.794 137.62 46.292C137.62 43.754 135.928 42.314 133.624 42.314C132.076 42.314 131.014 43.052 130.546 43.826C130.69 41.432 132.22 39.65 134.65 39.65C135.532 39.65 136.306 39.902 136.738 40.154L137.278 38.714ZM130.798 46.292C130.798 44.726 131.968 43.826 133.318 43.826C134.668 43.826 135.838 44.726 135.838 46.292C135.838 47.84 134.686 48.74 133.318 48.74C132.04 48.74 130.798 47.822 130.798 46.292ZM139.147 44.114V45.536H142.513V49.082H143.989V45.536H147.373V44.114H143.989V40.604H142.513V44.114H139.147ZM158.787 41.252C158.697 41.234 158.463 41.198 158.229 41.198C157.347 41.198 156.267 41.522 155.637 42.854V41.342H153.981V50H155.673V45.662C155.673 43.754 156.627 42.998 158.049 42.998C158.283 42.998 158.535 43.016 158.787 43.052V41.252ZM159.944 47.678C159.944 49.046 161.078 50.27 162.842 50.27C164.39 50.27 165.254 49.442 165.632 48.83C165.632 49.46 165.686 49.784 165.722 50H167.378C167.342 49.784 167.27 49.334 167.27 48.578V44.24C167.27 42.548 166.262 41.072 163.67 41.072C161.798 41.072 160.304 42.224 160.124 43.88L161.744 44.258C161.852 43.25 162.518 42.512 163.706 42.512C165.02 42.512 165.578 43.214 165.578 44.06C165.578 44.366 165.434 44.636 164.912 44.708L162.572 45.05C161.078 45.266 159.944 46.13 159.944 47.678ZM163.076 48.848C162.212 48.848 161.672 48.236 161.672 47.588C161.672 46.814 162.212 46.4 162.932 46.292L165.578 45.896V46.292C165.578 48.182 164.462 48.848 163.076 48.848ZM172.23 38.606H170.682V40.01C170.682 40.766 170.286 41.342 169.35 41.342H168.882V42.872H170.538V47.624C170.538 49.19 171.474 50.09 172.95 50.09C173.526 50.09 173.958 49.982 174.102 49.928V48.488C173.958 48.524 173.652 48.56 173.436 48.56C172.554 48.56 172.23 48.164 172.23 47.372V42.872H174.102V41.342H172.23V38.606ZM177.786 50V41.342H176.112V50H177.786ZM175.734 38.066C175.734 38.732 176.274 39.272 176.94 39.272C177.624 39.272 178.164 38.732 178.164 38.066C178.164 37.382 177.624 36.842 176.94 36.842C176.274 36.842 175.734 37.382 175.734 38.066ZM182.216 44.996C182.216 43.682 182.9 42.62 184.232 42.62C185.744 42.62 186.248 43.592 186.248 44.798V50H187.94V44.51C187.94 42.584 186.914 41.09 184.844 41.09C183.836 41.09 182.81 41.504 182.18 42.584V41.342H180.524V50H182.216V44.996ZM190.003 50.468C190.219 52.322 191.839 53.69 193.999 53.69C197.257 53.69 198.337 51.548 198.337 49.352V41.342H196.663V42.548C196.231 41.684 195.331 41.18 193.999 41.18C191.623 41.18 190.021 43.052 190.021 45.392C190.021 47.84 191.695 49.586 193.999 49.586C195.295 49.586 196.231 48.956 196.645 48.164V49.406C196.645 51.278 195.817 52.214 193.999 52.214C192.685 52.214 191.767 51.296 191.641 50.09L190.003 50.468ZM194.251 48.164C192.721 48.164 191.749 47.084 191.749 45.392C191.749 43.718 192.757 42.62 194.251 42.62C195.709 42.62 196.717 43.718 196.717 45.392C196.717 47.066 195.709 48.164 194.251 48.164ZM200.389 47.75C200.533 48.74 201.541 50.27 203.917 50.27C206.059 50.27 207.085 48.812 207.085 47.588C207.085 46.31 206.257 45.356 204.691 45.014L203.287 44.708C202.621 44.564 202.297 44.186 202.297 43.664C202.297 43.07 202.873 42.512 203.737 42.512C205.105 42.512 205.465 43.502 205.537 43.952L207.031 43.394C206.851 42.62 206.113 41.072 203.737 41.072C202.045 41.072 200.659 42.332 200.659 43.808C200.659 45.032 201.469 45.95 202.819 46.238L204.295 46.562C205.015 46.724 205.411 47.138 205.411 47.678C205.411 48.29 204.889 48.83 203.935 48.83C202.711 48.83 202.027 48.11 201.919 47.21L200.389 47.75Z" fill="#7C7884"></path><path d="M10.9858 16.3819C11.3024 16.192 11.6979 16.192 12.0146 16.3819L16.0179 18.7832C16.776 19.2379 17.7079 18.5576 17.5058 17.697L16.4478 13.1906C16.3625 12.8277 16.4863 12.4474 16.7689 12.2042L20.2873 9.17519C20.959 8.59691 20.602 7.49532 19.7188 7.42088L15.0765 7.0296C14.7075 6.9985 14.3859 6.76605 14.2406 6.42544L12.42 2.15669C12.0744 1.34644 10.9259 1.34643 10.5803 2.15669L8.75971 6.42544C8.61444 6.76605 8.29284 6.9985 7.92386 7.0296L3.28152 7.42088C2.39831 7.49532 2.04137 8.59691 2.71308 9.17519L6.23149 12.2042C6.51404 12.4474 6.6378 12.8277 6.55259 13.1906L5.49451 17.697C5.29247 18.5576 6.2244 19.2379 6.98242 18.7832L10.9858 16.3819Z" fill="#F05A3C"></path><path d="M37.9858 16.3819C38.3024 16.192 38.6979 16.192 39.0146 16.3819L43.0179 18.7832C43.776 19.2379 44.7079 18.5576 44.5058 17.697L43.4478 13.1906C43.3625 12.8277 43.4863 12.4474 43.7689 12.2042L47.2873 9.17519C47.959 8.59691 47.602 7.49532 46.7188 7.42088L42.0765 7.0296C41.7075 6.9985 41.3859 6.76605 41.2406 6.42544L39.42 2.15669C39.0744 1.34644 37.9259 1.34643 37.5803 2.15669L35.7597 6.42544C35.6144 6.76605 35.2928 6.9985 34.9239 7.0296L30.2815 7.42088C29.3983 7.49532 29.0414 8.59691 29.7131 9.17519L33.2315 12.2042C33.514 12.4474 33.6378 12.8277 33.5526 13.1906L32.4945 17.697C32.2925 18.5576 33.2244 19.2379 33.9824 18.7832L37.9858 16.3819Z" fill="#F05A3C"></path><path d="M64.9858 16.3819C65.3024 16.192 65.6979 16.192 66.0146 16.3819L70.0179 18.7832C70.776 19.2379 71.7079 18.5576 71.5058 17.697L70.4478 13.1906C70.3625 12.8277 70.4863 12.4474 70.7689 12.2042L74.2873 9.17519C74.959 8.59691 74.602 7.49532 73.7188 7.42088L69.0765 7.0296C68.7075 6.9985 68.3859 6.76605 68.2406 6.42544L66.42 2.15669C66.0744 1.34644 64.9259 1.34643 64.5803 2.15669L62.7597 6.42544C62.6144 6.76605 62.2928 6.9985 61.9239 7.0296L57.2815 7.42088C56.3983 7.49532 56.0414 8.59691 56.7131 9.17519L60.2315 12.2042C60.514 12.4474 60.6378 12.8277 60.5526 13.1906L59.4945 17.697C59.2925 18.5576 60.2244 19.2379 60.9824 18.7832L64.9858 16.3819Z" fill="#F05A3C"></path><path d="M90.9858 16.3819C91.3024 16.192 91.6979 16.192 92.0146 16.3819L96.0179 18.7832C96.776 19.2379 97.7079 18.5576 97.5058 17.697L96.4478 13.1906C96.3625 12.8277 96.4863 12.4474 96.7689 12.2042L100.287 9.17519C100.959 8.59691 100.602 7.49532 99.7188 7.42088L95.0765 7.0296C94.7075 6.9985 94.3859 6.76605 94.2406 6.42544L92.42 2.15669C92.0744 1.34644 90.9259 1.34643 90.5803 2.15669L88.7597 6.42544C88.6144 6.76605 88.2928 6.9985 87.9239 7.0296L83.2815 7.42088C82.3983 7.49532 82.0414 8.59691 82.7131 9.17519L86.2315 12.2042C86.514 12.4474 86.6378 12.8277 86.5526 13.1906L85.4945 17.697C85.2925 18.5576 86.2244 19.2379 86.9824 18.7832L90.9858 16.3819Z" fill="#F05A3C"></path><path d="M117.986 16.3819C118.302 16.192 118.698 16.192 119.015 16.3819L123.018 18.7832C123.776 19.2379 124.708 18.5576 124.506 17.697L123.448 13.1906C123.363 12.8277 123.486 12.4474 123.769 12.2042L127.287 9.17519C127.959 8.59691 127.602 7.49532 126.719 7.42088L122.076 7.0296C121.708 6.9985 121.386 6.76605 121.241 6.42544L119.42 2.15669C119.074 1.34644 117.926 1.34643 117.58 2.15669L115.76 6.42544C115.614 6.76605 115.293 6.9985 114.924 7.0296L110.282 7.42088C109.398 7.49532 109.041 8.59691 109.713 9.17519L113.231 12.2042C113.514 12.4474 113.638 12.8277 113.553 13.1906L112.495 17.697C112.292 18.5576 113.224 19.2379 113.982 18.7832L117.986 16.3819Z" fill="#D2D1D5"></path><mask id="mask0_1038_196" style="mask-type:alpha" maskUnits="userSpaceOnUse" x="109" y="1" width="19" height="18"><path d="M117.986 16.3819C118.302 16.192 118.698 16.192 119.015 16.3819L123.018 18.7832C123.776 19.2379 124.708 18.5576 124.506 17.697L123.448 13.1906C123.363 12.8277 123.486 12.4474 123.769 12.2042L127.287 9.17519C127.959 8.59691 127.602 7.49532 126.719 7.42088L122.076 7.0296C121.708 6.9985 121.386 6.76605 121.241 6.42544L119.42 2.15669C119.074 1.34644 117.926 1.34643 117.58 2.15669L115.76 6.42544C115.614 6.76605 115.293 6.9985 114.924 7.0296L110.282 7.42088C109.398 7.49532 109.041 8.59691 109.713 9.17519L113.231 12.2042C113.514 12.4474 113.638 12.8277 113.553 13.1906L112.495 17.697C112.292 18.5576 113.224 19.2379 113.982 18.7832L117.986 16.3819Z" fill="white"></path></mask><g mask="url(#mask0_1038_196)"><path d="M118.015 16.3646C118.316 16.1839 118.5 15.8584 118.5 15.5071V0L115.76 6.42544C115.614 6.76605 115.293 6.9985 114.924 7.0296L110.282 7.42088C109.398 7.49532 109.041 8.59691 109.713 9.17519L113.231 12.2042C113.514 12.4474 113.638 12.8277 113.553 13.1906L112.495 17.697C112.292 18.5576 113.224 19.2379 113.982 18.7832L118.015 16.3646Z" fill="#F05A3C"></path></g></svg> 