<?xml version="1.0" encoding="UTF-8"?> <svg xmlns="http://www.w3.org/2000/svg" width="124" height="32" viewBox="0 0 124 32" fill="none"><path fill-rule="evenodd" clip-rule="evenodd" d="M117.644 17.9711C117.482 18.1853 117.302 18.3917 117.103 18.5889C116.424 19.2588 115.559 19.8217 114.602 20.2516C113.646 20.6857 112.596 20.9899 111.518 21.1863C110.444 21.3827 109.337 21.4694 108.228 21.4702C107.121 21.4694 106.013 21.3827 104.938 21.1863C104.844 21.1685 104.751 21.1499 104.657 21.1316C103.077 18.8101 101.876 14.9156 101.66 14.1855C101.042 14.5314 99.9647 15.8865 99.6762 16.2568L99.7343 16.4697C99.9823 17.4212 100.342 18.6885 100.667 19.6155C100.182 19.3105 99.7377 18.9675 99.3538 18.5889L99.2864 18.5208C98.7397 17.9714 98.5271 17.2021 98.8754 16.4764C99.0172 16.1814 99.2525 15.9319 99.4566 15.6795C100.118 14.8622 100.818 14.0686 101.544 13.2981C101.906 12.9177 102.283 12.5234 102.66 12.1412C103.039 11.7564 103.425 11.3788 103.811 11.0023L104.397 10.4436C104.593 10.2578 104.791 10.0761 104.99 9.89239C105.186 9.70658 105.386 9.52594 105.586 9.34452C105.787 9.16413 105.984 8.97961 106.188 8.8031C106.466 8.56155 106.717 8.29368 107.035 8.10194C107.73 7.68232 108.568 7.78968 109.217 8.24852C109.395 8.39045 109.578 8.5311 109.757 8.67484C110.62 9.37006 111.472 10.0792 112.304 10.809C112.719 11.176 113.133 11.5435 113.539 11.919C113.768 12.129 114.037 12.3425 114.288 12.5551C114.788 11.2418 115.074 9.70968 115.187 9.02245C114.801 8.75252 114.41 8.4991 114.023 8.22916C113.083 7.57781 112.13 6.95432 111.17 6.34787C110.777 6.09961 110.381 5.85832 109.984 5.61935L109.989 5.62193C111.307 4.60439 114.168 2.42993 116.282 1.07174C116.282 1.07174 116.522 0.896515 116.545 1.21419C116.65 2.70864 116.546 5.28103 115.866 9.48748C115.697 10.3226 115.509 11.1505 115.299 11.968C115.225 12.2622 115.142 12.5528 115.064 12.8439C114.978 13.1334 114.901 13.4245 114.811 13.711C114.639 14.287 114.449 14.8537 114.251 15.4152C113.851 16.5352 113.403 17.6255 112.898 18.6756C112.688 19.1148 112.402 19.6986 112.138 20.2077C112.581 20.1801 113.56 19.9804 115.506 19.0583C115.768 18.1634 116.118 16.9499 116.293 16.113C116.377 15.7154 116.453 15.3166 116.524 14.9172C116.671 15.0828 116.818 15.2493 116.961 15.4186C117.127 15.6124 117.29 15.809 117.45 16.0067C117.45 16.0067 118.236 16.975 117.644 17.9711ZM109.286 24.3688C109.198 24.4699 109.109 24.5711 109.019 24.6704L109.003 24.6872C108.75 24.9502 108.402 25.1768 108.022 25.1422C107.91 25.1321 107.801 25.1017 107.698 25.0547C107.488 24.9553 107.338 24.7858 107.185 24.6147C106.879 24.2699 106.574 23.927 106.291 23.5631C106.002 23.1938 105.728 22.8131 105.467 22.4245C105.422 22.3579 105.377 22.2903 105.333 22.223C106.296 22.2988 107.259 22.3326 108.218 22.3342H108.239C109.119 22.3326 109.999 22.3063 110.881 22.2431C110.381 22.9987 109.851 23.7133 109.286 24.3688ZM122.082 15.4237C122.07 15.4044 122.056 15.3845 122.043 15.3652C121.997 15.3019 121.977 15.2772 121.947 15.2366L121.866 15.1339C121.813 15.0653 121.762 15.0033 121.709 14.9401C121.606 14.8132 121.503 14.6937 121.4 14.5739C121.194 14.3368 120.988 14.1063 120.778 13.8839C120.36 13.4369 119.935 13.0072 119.5 12.5948C118.731 11.8604 117.936 11.1763 117.123 10.5239C117.184 9.57806 117.222 8.63328 117.234 7.69083C117.236 7.3778 117.24 7.06477 117.239 6.75199C117.236 6.43922 117.237 6.12722 117.23 5.81496C117.216 5.19174 117.196 4.56851 117.167 3.9458C117.115 2.79535 117.108 1.61315 116.928 0.477155C116.891 0.247477 116.69 0.348639 116.69 0.348639C116.304 0.52851 115.91 0.708897 115.529 0.892897C115.08 1.11483 114.627 1.33238 114.178 1.55948C113.28 2.01161 112.388 2.47535 111.509 2.96335C110.632 3.44128 109.768 3.94141 108.907 4.44851C108.533 4.65161 108.158 4.85677 107.785 5.06425C106.845 5.59561 105.911 6.1458 104.988 6.72438C104.065 7.30167 103.149 7.89987 102.245 8.52851C101.795 8.84412 101.344 9.16232 100.898 9.49006L100.562 9.74864C100.34 8.71974 100.171 7.67638 100.036 6.63561C99.942 5.91845 99.8456 5.19974 99.7782 4.47974C99.7098 3.74657 99.6214 2.98993 99.6465 2.25341C99.6501 2.15561 99.6591 2.05367 99.7079 1.96851C99.7335 1.92412 99.7671 1.89522 99.8237 1.87535C99.8759 1.85599 99.9459 1.86606 100.012 1.90735C100.012 1.90735 102.239 3.14606 105.62 5.57599C106.08 5.26554 107.146 4.55716 107.704 4.29341C107.28 4.04645 106.813 3.77728 106.422 3.56154C105.274 2.92619 104.112 2.31148 102.936 1.72799C102.275 1.39974 101.608 1.0627 100.934 0.761284C100.609 0.616252 100.281 0.446703 99.9523 0.310961C99.6679 0.1938 99.2579 -0.0134259 98.9477 0.0474774C98.9156 0.054187 98.8833 0.0634774 98.8531 0.0753483C98.5865 0.181155 98.4703 0.481026 98.4457 0.759219C98.2264 3.25006 98.1683 7.96928 98.7604 11.1698C98.5919 11.3138 98.423 11.4581 98.2561 11.6072C98.0417 11.7972 97.8309 11.9948 97.6183 12.1894C97.4106 12.3917 97.1998 12.5892 96.9949 12.7982C96.5806 13.208 96.1817 13.6413 95.7877 14.0913C95.5919 14.3169 95.3979 14.5481 95.2065 14.7897C95.1112 14.911 95.0158 15.0323 94.9197 15.1608L94.7753 15.3584L94.7012 15.4632L94.5663 15.6692C94.3638 16.0095 94.2476 16.4201 94.2476 16.8617C94.2476 18.6668 96.4586 19.6823 97.8361 20.3608C98.9614 20.9135 100.119 21.3063 101.28 21.5943C101.335 21.6077 101.39 21.6212 101.445 21.6341C101.689 22.2114 101.948 22.7827 102.221 23.3437C102.803 24.5337 103.468 25.6924 104.254 26.7902C104.647 27.3381 105.069 27.8712 105.533 28.3845C105.766 28.6408 106.008 28.8919 106.269 29.1378C106.399 29.2609 106.533 29.383 106.675 29.5053C106.749 29.5659 106.821 29.6274 106.901 29.6898L107.026 29.7861L107.075 29.8222C107.115 29.8526 107.158 29.8813 107.201 29.9081C107.468 30.0766 107.767 30.1685 108.074 30.1778C108.094 30.1794 108.114 30.1794 108.136 30.1794C108.155 30.1794 108.175 30.1794 108.194 30.1778C108.473 30.1659 108.74 30.0952 108.99 29.9721C109.26 29.8379 109.479 29.6501 109.698 29.448C109.793 29.3603 109.887 29.271 109.98 29.1809C110.054 29.1076 110.129 29.0335 110.203 28.9592C110.368 28.7907 110.515 28.6028 110.682 28.4351C111.136 27.9329 111.551 27.4088 111.932 26.8653C112.123 26.5948 112.305 26.3184 112.482 26.0403C112.657 25.759 112.826 25.4774 112.987 25.1907C113.313 24.6204 113.607 24.0338 113.882 23.4413C114.141 22.8774 114.385 22.3045 114.615 21.7257C114.802 21.6844 114.991 21.6413 115.179 21.5941C116.339 21.3058 117.498 20.9133 118.622 20.3605C119.185 20.0841 119.737 19.7654 120.28 19.3964C120.672 19.1301 121.068 18.8864 121.408 18.5535C121.827 18.1424 122.269 17.6503 122.391 17.0637C122.505 16.5032 122.399 15.9027 122.082 15.4237V15.4237Z" fill="#F05A3C"></path><path fill-rule="evenodd" clip-rule="evenodd" d="M13.8459 15.4991V19.0346C13.1564 20.6155 11.6049 21.7649 9.82369 21.7649C8.90428 21.7649 8.04248 21.4488 7.32431 20.9324C6.20418 20.1556 5.42841 18.8047 5.42841 17.2524C5.42841 15.7288 6.17525 14.3783 7.32431 13.5732C8.04248 13.0555 8.87561 12.7683 9.82369 12.7683C11.6049 12.7683 13.1564 13.9468 13.8459 15.4991ZM17.7243 23.8067V9.37756H14.1908C14.1908 10.0096 13.4726 10.3551 12.9555 10.0096C11.9787 9.34865 10.7718 8.94633 9.47907 8.94633C4.99777 8.94633 1.55005 12.6828 1.55005 17.2532C1.55005 21.8527 4.99777 25.5892 9.47907 25.5892C10.6857 25.5892 11.7488 25.2436 12.6682 24.6689C13.2427 24.3241 13.9612 24.9572 13.6739 25.5605C13.6664 25.5753 13.6589 25.5882 13.652 25.6001C13.632 25.6345 13.6165 25.6612 13.6165 25.7037C12.9841 26.9399 11.6914 27.8307 9.82369 27.8307C7.49688 27.8307 5.88798 26.9685 4.94042 26.2212L2.58416 29.1825C3.84818 30.1592 6.00268 31.5959 9.82369 31.5959C14.3344 31.5959 17.7243 28.4054 17.7243 23.8067ZM27.8843 24.3639L26.8156 21.6908C26.0933 21.8341 25.6885 21.7185 25.3996 21.5172C25.1684 21.3453 24.9664 21.0865 24.9664 20.6263V2.65961H21.0374V20.8565C21.0374 23.4723 22.4528 25.2841 24.9085 25.2841C25.6022 25.2841 26.8732 24.9959 27.8843 24.3639ZM36.3261 22.0294C33.8435 22.0294 31.8277 19.8444 31.8277 17.1275C31.8277 14.4111 33.8433 12.2258 36.3261 12.2258C38.7803 12.2258 40.7955 14.4111 40.7955 17.1275C40.7955 19.8444 38.7803 22.0294 36.3261 22.0294ZM36.3259 8.44594C31.6521 8.44594 27.8843 12.3435 27.8843 17.1275C27.8843 21.9115 31.6521 25.808 36.3259 25.808C40.9702 25.808 44.738 21.9115 44.738 17.1275C44.738 12.3435 40.9702 8.44594 36.3259 8.44594ZM57.1008 9.41059H53.8597C53.1072 9.41059 52.4998 8.80001 52.5001 8.04414C52.5001 6.79381 53.1074 6.27046 54.1785 6.12517C55.162 6.00904 56.0305 6.27072 56.8409 6.93936L58.4322 4.09059C57.101 3.18943 55.0465 2.2591 52.5001 2.84052C50.3296 3.30555 48.6223 5.28259 48.6223 7.86968C48.6223 8.74194 47.9276 9.41059 47.0883 9.41059H45.2652V12.6088H47.0883C47.9276 12.6088 48.6223 13.2769 48.6223 14.12V25.2841H52.5575V14.1492C52.5575 13.2769 53.2234 12.6088 54.0914 12.6088H57.1008V9.41059ZM65.8203 22.0294C63.3377 22.0294 61.3219 19.8444 61.3219 17.1275C61.3219 14.4111 63.3377 12.2258 65.8203 12.2258C68.2734 12.2258 70.2894 14.4111 70.2894 17.1275C70.2894 19.8444 68.2734 22.0294 65.8203 22.0294ZM65.8203 8.44594C61.1468 8.44594 57.3785 12.3435 57.3785 17.1275C57.3785 21.9115 61.1468 25.808 65.8203 25.808C70.4644 25.808 74.2324 21.9115 74.2324 17.1275C74.2324 12.3435 70.4644 8.44594 65.8203 8.44594ZM81.3115 21.5543C81.6339 21.0916 82.3391 21.0622 82.6621 21.5257L85.0111 25.2834H90.0321C90.0321 25.2834 86.597 20.4844 85.0703 18.3742C84.629 17.7959 84.5996 16.9871 85.0398 16.4085C86.5676 14.2981 90.0321 9.49936 90.0321 9.49936H85.0111L82.6321 13.1128C82.31 13.6044 81.575 13.6044 81.2226 13.1128L78.8142 9.49936H73.7932L78.8142 16.4085C79.2544 16.9871 79.2544 17.7675 78.8142 18.3455L73.7057 25.2834H78.7266L81.3115 21.5543Z" fill="#110F14"></path></svg> 